<?xml version="1.0" standalone="no"?>
<!DOCTYPE svg PUBLIC "-//W3C//DTD SVG 20010904//EN"
 "http://www.w3.org/TR/2001/REC-SVG-20010904/DTD/svg10.dtd">
<svg version="1.0" xmlns="http://www.w3.org/2000/svg"
 width="256.000000pt" height="256.000000pt" viewBox="0 0 256.000000 256.000000"
 preserveAspectRatio="xMidYMid meet">
<metadata>
Created by potrace 1.11, written by Peter Selinger 2001-2013
</metadata>
<g transform="translate(0.000000,256.000000) scale(0.100000,-0.100000)"
fill="#000000" stroke="none">
<path d="M1140 2554 c-237 -36 -388 -92 -565 -210 -286 -190 -476 -469 -550
-809 -31 -141 -26 -415 9 -550 2 -5 6 -23 10 -40 4 -16 10 -37 13 -45 3 -8 7
-19 8 -25 23 -94 141 -305 232 -414 170 -206 452 -378 704 -430 30 -6 65 -14
79 -17 59 -13 318 -12 403 2 524 85 948 495 1053 1016 19 97 26 336 13 423
-39 247 -135 461 -287 644 -198 236 -470 391 -782 446 -42 7 -304 14 -340 9z"/>
</g>
</svg>
