<svg id="Layer_1" enable-background="new 0 0 512 512" height="512" viewBox="0 0 512 512" width="512" xmlns="http://www.w3.org/2000/svg"><g><circle cx="256" cy="256" fill="#dcdcdc" r="256"/><circle cx="256" cy="256" fill="#efefef" r="225.095"/><circle cx="256" cy="256" fill="#e82a40" r="184.402"/><path d="m256 71.598c-5.205 0-10.357.227-15.453.65 94.61 7.851 168.95 87.115 168.95 183.753 0 96.637-74.34 175.901-168.95 183.753 5.096.423 10.247.65 15.453.65 101.843 0 184.402-82.56 184.402-184.402s-82.559-184.404-184.402-184.404z" fill="#d6243a"/><g fill="#c71c32"><circle cx="189.785" cy="171.549" r="27.09"/><circle cx="131.721" cy="259.174" r="27.09"/><circle cx="210.374" cy="362.408" r="27.09"/><circle cx="313.195" cy="340.451" r="27.09"/></g><circle cx="248.662" cy="256" fill="#efefef" r="44.705"/><path d="m248.661 211.295c-6.851 0-13.34 1.546-19.144 4.301 15.11 7.172 25.561 22.566 25.561 40.404s-10.451 33.232-25.561 40.404c5.804 2.755 12.292 4.301 19.144 4.301 24.69 0 44.705-20.015 44.705-44.705s-20.014-44.705-44.705-44.705z" fill="#dcdcdc"/><path d="m354.858 194.566c-.629-.043-1.069-.612-.951-1.232 1.16-6.069.264-12.563-3.006-18.367-7.087-12.579-22.718-17.309-35.517-11.025-.577.283-1.255-.005-1.451-.618-.637-1.997-1.518-3.954-2.654-5.832-7.178-11.86-22.52-16.404-34.984-10.335-14.158 6.894-19.4 24.16-11.784 37.677 1.455 2.582 3.273 4.829 5.35 6.722.483.44.404 1.207-.127 1.588-11.076 7.951-14.627 23.13-7.779 35.284 3.553 6.306 9.255 10.636 15.669 12.599.531.163.834.7.698 1.239-1.644 6.504-.894 13.624 2.659 19.93 6.621 11.752 20.7 16.65 32.96 12.12.482-.178 1.026.009 1.264.465.117.225.238.449.364.672 7.345 13.035 23.865 17.648 36.9 10.304 13.035-7.345 17.648-23.865 10.304-36.9-.107-.189-.216-.376-.328-.562-.325-.54-.097-1.254.49-1.484 1.154-.452 2.292-.987 3.403-1.613 13.035-7.345 17.648-23.865 10.304-36.9-4.653-8.259-12.986-13.132-21.784-13.732z" fill="#6bd169"/><path d="m354.859 194.566c-.63-.043-1.069-.613-.951-1.232 1.16-6.068.264-12.563-3.006-18.367-7.087-12.579-22.718-17.309-35.517-11.025-.577.283-1.255-.005-1.451-.618-.763-2.393-1.876-4.728-3.36-6.939-7.358-10.96-21.887-15.01-33.851-9.431-5.978 2.788-10.411 7.403-13.016 12.823 8.287.807 16.103 5.378 20.648 12.886l.118.196c2.066 3.425 6.102 5.008 10.005 4.135 11.353-2.538 23.494 2.485 29.499 13.144 1.328 2.357 2.265 4.829 2.831 7.339 1.494 6.624 5.82 12.137 11.844 15.273 4.498 2.341 8.39 5.97 11.064 10.717 7.344 13.035 2.731 29.556-10.304 36.9-1.111.626-4.361 4.956-2.964 8.081 2.616 5.852 3.905 12.957.181 20.672 5.317.506 10.835-.545 15.841-3.365 13.035-7.345 17.648-23.865 10.304-36.9-.107-.189-.216-.376-.327-.561-.326-.54-.097-1.255.49-1.485 1.154-.452 2.291-.987 3.402-1.613 13.035-7.345 17.648-23.865 10.304-36.9-4.654-8.257-12.987-13.13-21.784-13.73z" fill="#52b551"/></g></svg>