<svg xmlns="http://www.w3.org/2000/svg" height="512" viewBox="0 0 511.343 511.343" width="512" xmlns:v="https://vecta.io/nano"><path d="M490.334 106.668H90.526L84.583 40.46c-.972-10.827-10.046-19.123-20.916-19.123H21c-11.598 0-21 9.402-21 21s9.402 21 21 21h23.468c12.825 142.882-20.32-226.415 24.153 269.09 1.714 19.394 12.193 40.44 30.245 54.74-32.547 41.564-2.81 102.84 50.134 102.84 43.942 0 74.935-43.826 59.866-85.334h114.936c-15.05 41.455 15.876 85.334 59.866 85.334 35.106 0 63.667-28.56 63.667-63.667s-28.56-63.667-63.667-63.667H149.142c-15.952 0-29.853-9.624-35.853-23.646L448.897 319.3c9.162-.538 16.914-6.966 19.14-15.87l42.67-170.67c3.308-13.234-6.7-26.093-20.374-26.093zM149 448.005c-11.946 0-21.666-9.72-21.666-21.667s9.72-21.667 21.666-21.667 21.667 9.72 21.667 21.667-9.72 21.667-21.667 21.667zm234.667 0c-11.947 0-21.667-9.72-21.667-21.667s9.72-21.667 21.667-21.667 21.667 9.72 21.667 21.667-9.72 21.667-21.667 21.667zm47.366-169.726l-323.397 19.005-13.34-148.617h369.142z" fill="#fff"/></svg>