<svg xmlns="http://www.w3.org/2000/svg" height="512" viewBox="0 0 384 384" width="512" fill="#1780f0" xmlns:v="https://vecta.io/nano"><path d="M343.594 101.04c-7.953 3.848-11.28 13.418-7.434 21.367C346.672 144.12 352 167.527 352 192c0 88.223-71.777 160-160 160S32 280.223 32 192 103.777 32 192 32c36.56 0 70.902 11.938 99.328 34.52 6.895 5.504 16.977 4.352 22.48-2.566s4.352-16.984-2.57-22.48C277.586 14.727 235.238 0 192 0 86.137 0 0 86.137 0 192s86.137 192 192 192 192-86.137 192-192c0-29.336-6.406-57.45-19.04-83.527-3.84-7.97-13.44-11.3-21.367-7.434zM192 64a16.01 16.01 0 0 0-16 16v112a16.01 16.01 0 0 0 16 16h80a16.01 16.01 0 0 0 16-16 16.01 16.01 0 0 0-16-16h-64V80a16.01 16.01 0 0 0-16-16zm0 0"/></svg>