<?xml version="1.0" encoding="UTF-8"?>
<!DOCTYPE svg PUBLIC "-//W3C//DTD SVG 1.1//EN" "http://www.w3.org/Graphics/SVG/1.1/DTD/svg11.dtd">
<!-- Creator: CorelDRAW X6 -->
<svg xmlns="http://www.w3.org/2000/svg" xml:space="preserve" width="238.912mm" height="212.501mm" version="1.1" style="shape-rendering:geometricPrecision; text-rendering:geometricPrecision; image-rendering:optimizeQuality; fill-rule:evenodd; clip-rule:evenodd"
viewBox="0 0 5587 4970"
 xmlns:xlink="http://www.w3.org/1999/xlink">
 <defs>
  <style type="text/css">
   <![CDATA[
    .fil0 {fill:#FEFEFE}
   ]]>
  </style>
 </defs>
 <g id="Слой_x0020_1">
  <metadata id="CorelCorpID_0Corel-Layer"/>
  <g id="_750314800">
   <path class="fil0" d="M1910 3524c4,-29 12,-51 36,-70 3,4 20,18 5,47 -9,20 -19,19 -41,23zm499 -428c62,4 62,44 75,68 18,31 19,94 -7,115 -20,16 -36,55 -82,39 -39,-13 27,-29 36,-62 4,-15 13,-21 14,-43 2,-45 -5,-55 -29,-80 -25,-25 -13,-37 -7,-37zm-42 52c7,-8 35,-5 38,18 5,35 12,74 -30,85 -11,3 -29,-15 -6,-32 24,-17 -15,-58 -2,-71zm-174 -202c9,-18 6,-21 8,-26 11,-22 -5,-9 17,-18 20,26 14,17 9,55 -20,29 -2,23 -31,33 -9,-11 -7,0 -7,-19 0,0 4,-21 4,-25zm81 -10l-8 -19c-1,-18 6,-10 -17,-36 -1,-1 -3,-2 -4,-3l-7 -7c7,-36 -2,4 2,-26 50,18 80,50 73,123 -7,80 -126,122 -83,63 14,-20 51,-31 44,-95zm-1648 -396l7 26c23,146 165,380 235,466 126,154 144,208 348,363 437,334 872,292 1295,-25 325,-244 578,-740 168,-1010 -36,-24 -70,-51 -107,-75 -189,-118 -153,-78 -296,-231 -152,-162 -35,-81 -298,39 -176,80 -382,65 -536,-56 -57,-44 -116,-132 -136,-209 -75,-292 220,-705 562,-545 1,0 129,97 127,-5 0,-15 -5,-27 -10,-38 -10,-20 -31,-51 -44,-64 -73,-79 -20,-75 -43,-169 -26,-104 -114,-190 -218,-214 -279,-64 -617,212 -747,331l-306 336c-96,109 -210,284 -339,355 -47,26 -106,35 -140,57 -11,107 151,81 153,83 4,3 29,-3 -1,44 -91,137 -88,140 -148,322 -60,180 -68,176 -141,322 -28,56 2,78 40,66 47,-16 74,-77 120,-87 18,75 22,162 43,240 47,180 154,449 343,499 198,53 318,-134 259,-260 -45,-95 -208,-117 -266,-10 -23,42 -18,72 -41,105 -50,0 -93,-73 -120,-121 -24,-42 -71,-119 -75,-173 72,-7 61,18 123,-24 -2,-61 -64,-133 -88,-200 -24,-70 -35,-190 -4,-252 32,4 151,118 113,-72 -39,-193 3,-383 72,-562 15,-36 24,-58 39,-92 14,-30 26,-68 49,-82 6,21 -31,172 -37,210 -13,76 -19,166 -14,250 10,144 23,331 59,462zm447 -1398l10 -2c26,14 16,14 5,31 -28,-4 -14,7 -23,-11 -13,-23 8,-18 8,-18zm47 -55l-14 -19c-4,-58 36,-60 72,-32 -1,30 -5,33 -16,51l-42 0zm527 2420l14 -86c23,1 31,13 29,42 -2,38 -16,41 -43,44zm202 -56c41,-4 14,0 24,6 1,13 -2,13 -15,19 -14,-17 -6,0 -9,-25zm132 -25c38,-1 55,36 44,84 -4,14 -18,39 -25,49 -6,9 -7,14 -17,18 -41,19 -31,-4 -31,-4 0,-34 18,-23 31,-55 19,-49 -14,-58 -2,-92zm254 35c-11,-18 -10,-12 -7,-38 3,-30 13,-31 15,-34 15,15 20,10 17,42 -4,39 -13,25 -25,30zm-522 -56c1,-1 3,-30 37,16 14,18 19,35 15,58 -6,38 -35,77 -66,85 -86,23 41,-48 27,-111l-13 -48zm573 -45c67,7 55,124 -3,134 -12,-33 6,-24 12,-55 7,-41 -15,-33 -9,-79zm-824 -16c82,-8 38,134 -25,110 11,-40 15,-6 27,-43 7,-22 -1,-42 -2,-67zm72 -45c37,-9 66,1 99,-24 32,-23 28,-54 65,-57 9,54 -23,80 -58,97 -37,17 -94,30 -106,-16zm523 -36c22,-84 7,-31 13,-80 3,-33 -1,-12 9,-26 35,-3 47,118 -22,106zm-257 2c3,-42 4,-15 15,-39 10,-20 7,-33 11,-54 61,25 19,94 -26,93zm-667 22c-2,-45 37,-10 70,-46 3,-4 51,-103 59,-40 2,14 1,14 -4,28 -11,30 -62,80 -125,58zm434 -28c10,-42 0,9 59,-73 43,22 -6,86 -59,73zm417 -88c41,-7 45,18 12,39 -18,-13 -25,-3 -12,-39zm-243 7c45,-2 28,27 6,23l-6 -10c-7,-52 1,25 0,-13zm-610 48c9,-19 34,-45 57,-45 0,1 15,-10 4,24 -4,13 -7,12 -16,18 -15,9 -30,7 -45,3zm739 -92c50,2 76,56 58,114 -16,50 -50,77 -102,82 12,-76 41,-27 57,-86 10,-35 -12,-72 -13,-110zm-537 41c23,-27 76,35 140,-44 24,-29 3,-25 36,-42 0,0 34,10 -4,66 -39,57 -126,80 -172,20zm793 -50c7,-4 1,-7 16,-3 13,2 -1,-5 15,7 10,8 18,24 24,35 47,96 -59,213 -111,185 13,-67 102,-11 56,-224zm-774 0c15,-29 11,-15 46,-27 26,-9 29,-18 57,-23 -4,63 -71,62 -103,50zm-398 -74c24,-15 36,-3 98,-20 38,59 -101,61 -98,20zm651 36c26,-22 90,27 142,-62 17,-29 6,-30 34,-39 49,95 -139,185 -176,101zm27 -58c7,-24 -6,-10 14,-23l77 -28c-2,47 -43,61 -91,51zm-515 -37c41,3 66,31 117,16 20,-5 87,-55 71,-4 -16,50 -166,71 -188,-12zm53 -51c13,-2 19,-2 35,-1 2,1 23,3 23,3 15,4 11,4 20,10 -12,17 -11,23 -44,19 -41,-4 -29,-23 -34,-31zm1310 12c4,-24 8,-24 12,-42 5,-31 -3,-27 5,-53 54,-4 42,89 -17,95zm-579 12c17,-49 4,0 26,-40 15,-28 -5,-15 19,-35 18,14 23,16 8,45 -12,22 -21,28 -53,30zm-567 -65c72,10 118,55 176,12 8,-6 10,-11 19,-15 2,0 4,-1 6,-2 32,-6 23,3 27,4 9,44 -58,75 -116,68 -72,-8 -72,-44 -90,-46 -16,-3 16,18 -10,1 -18,-12 -4,6 -12,-22zm591 134c13,-48 59,-24 69,-82 5,-32 -35,-138 20,-85 27,25 29,84 10,122 -15,29 -59,59 -99,45zm-418 -156c-19,29 -87,41 -101,-22 45,5 85,6 101,22zm1032 -67c133,22 68,202 -14,199 5,-48 35,-43 40,-91 7,-58 -22,-63 -26,-108zm-1741 18c10,-6 -1,-6 17,-7 13,-1 5,1 13,2 9,1 15,5 29,5 39,1 22,-15 56,1 -8,27 -18,39 -56,37 -62,-4 -59,-38 -59,-38zm848 20c39,-5 74,1 104,-27 41,-41 4,-57 48,-72 28,35 7,117 -100,128 -51,5 -45,4 -52,-29zm-583 -35c47,-2 38,-24 82,-25 -1,82 -163,75 -173,-2 46,5 46,28 91,27zm602 -18c10,-21 -9,-12 27,-24 11,-4 27,-6 39,-7 -1,36 -32,53 -66,31zm-439 -27c31,-8 33,11 76,4 18,-3 30,-13 39,-16 52,-12 15,-4 29,8 5,26 -30,47 -66,46 -40,0 -85,-7 -78,-42zm-210 -23c10,-6 82,-11 90,-10 4,8 12,-15 5,16 -7,28 -68,39 -95,-6zm314 -26c7,46 -62,47 -73,3l73 -3zm903 -11c3,-13 6,-23 10,-36 14,-46 1,-26 25,-36 30,41 -5,98 -35,72zm-266 23c2,-20 39,-36 57,-65 30,-46 8,-65 29,-93 36,22 45,72 16,114 -24,37 -70,59 -102,44zm-508 -27c8,-25 -18,-15 26,-21 139,-18 34,-37 106,-47 31,62 -78,104 -132,68zm1101 -74c4,25 -2,28 -9,42 -27,-10 -15,16 -26,-30 -12,-56 0,-31 7,-41 18,5 22,-12 28,29zm-249 -1c0,-19 0,-6 7,-17 66,-13 49,188 -60,169 8,-51 30,-21 53,-75 12,-27 10,-22 5,-50 -2,-18 -5,-12 -5,-27zm-818 9c14,-27 28,-26 51,-16 -6,17 2,18 -20,25 -25,8 -22,-2 -31,-9zm474 33c4,-41 4,-21 20,-50 19,-33 -4,-19 25,-33 15,23 14,33 1,59 -12,22 -17,22 -46,24zm-1200 -26c-38,-1 -37,-6 -40,-32 17,-9 69,-6 87,0 -3,28 -7,34 -47,32zm150 -72c16,-16 4,1 28,9 63,20 127,-49 106,9 -14,37 -99,43 -131,16 -8,-6 -10,-7 -11,-19 -2,-30 -3,-5 8,-15zm1668 -13c54,38 56,156 -19,157 -4,-47 28,-52 1,-114 -10,-23 -31,-76 18,-43zm-886 37c9,-23 -17,-8 29,-21 91,-26 37,-50 79,-38 24,52 -64,87 -108,59zm-677 -37c-30,15 -78,10 -78,-23l24 -3c59,4 49,16 54,26zm122 -23c28,-8 39,5 71,-11 29,-14 10,-23 54,-19 -7,89 -134,74 -125,30zm235 -31c30,-23 26,2 62,-19 17,-9 24,-27 43,-36 30,30 -9,87 -74,77 -25,-4 -25,-10 -31,-22zm-188 -56c-10,14 -9,4 -20,6 3,-26 -5,-17 16,-27 3,4 23,-8 4,21zm699 31c5,-44 19,-14 48,-40 37,-33 -8,-40 51,-44 2,58 -49,102 -99,84zm262 -26c-9,-15 -12,-19 -3,-41 12,-33 4,-19 32,-25 6,42 3,56 -29,66zm-728 -25c-23,15 -19,-3 -19,-3 -3,-32 -1,-27 34,-25 -8,25 7,13 -15,28zm686 -36c-7,26 -1,6 -12,25 -20,-12 -13,-4 -17,-29l29 4zm228 -1c-9,30 -1,20 -27,17l6 -25c22,5 6,-5 21,8zm-128 -37c14,8 24,9 34,52 19,87 -48,137 -85,111 3,-42 33,-18 46,-66 14,-50 -19,-66 5,-97zm-635 76c18,-35 15,-3 40,-34 32,-39 -12,-29 46,-36 10,60 -48,105 -86,70zm825 24c-21,-21 -7,-7 -6,-44l6 -50c43,23 37,69 0,94zm-833 -119c19,24 14,18 -9,25 -21,-26 -11,-17 9,-25zm868 -11c134,-4 68,232 -10,207 -1,-2 -10,-5 1,-25 3,-6 12,-13 16,-17 57,-69 -5,-123 -7,-165zm-680 -119c65,13 24,84 -6,95 -33,12 -19,-15 -11,-28 14,-25 11,-38 17,-67zm265 87c-15,-26 -2,-23 3,-56 7,-41 -9,-32 16,-58 27,10 33,33 26,65 -6,27 -26,49 -45,49zm218 -188c49,14 43,131 -13,122 -10,-34 24,-34 6,-82 -5,-13 -36,-52 7,-40zm-1276 8c-37,2 -52,-25 -26,-41 39,-23 39,16 26,41zm157 -20c-17,29 -13,27 -51,20 -7,-47 5,-36 9,-41 28,-6 31,-3 42,21zm115 13c-57,13 -57,-58 -1,-43 14,23 16,23 1,43zm-424 -48c1,19 2,7 -1,25l-6 13c-52,20 -62,-58 7,-38zm518 -25c25,-9 52,3 34,36 -16,17 -41,10 -34,-36zm-709 10c5,-19 13,-21 32,-25 34,37 3,51 -14,46 -12,-3 -13,-11 -18,-21zm636 -270c-47,-1 -66,-32 -33,-51 48,-26 41,28 33,51zm-152 -9c-11,-34 -6,-46 26,-56 31,22 29,22 16,63l-42 -7zm-116 -25c-17,-34 -23,-51 27,-60 37,29 23,59 -27,60zm-108 -95c16,-9 -17,-1 19,-7 11,-2 15,0 25,2 24,74 -71,72 -44,5zm-51 -38c-9,17 -11,21 -29,31 -26,-8 -17,-3 -31,-23 6,-26 13,-32 37,-37 21,15 12,3 23,29zm-80 -87l-4 41c-42,12 -57,2 -48,-44l52 3zm599 -146c-22,-11 -24,-46 22,-47 19,23 25,70 -22,47zm-107 -45c15,0 26,-4 27,14 0,20 -8,13 -22,17 -15,-21 -14,-2 -5,-31zm213 -52c-32,27 -66,-55 2,-37 6,14 10,-20 6,20 -2,29 2,8 -8,17zm-191 -5c-6,-82 66,-62 74,-35 8,25 -8,47 -29,51 -20,5 -35,-9 -45,-16zm-73 0c-37,13 -20,12 -32,-14 13,-9 -8,-7 15,-11 31,-6 4,-1 18,6l-1 19zm388 -74c17,8 17,7 21,30l-30 0c-2,-27 -3,-15 9,-30zm-215 -62l36 4c7,22 3,56 -40,29l4 -33zm-197 25c22,-49 70,-49 78,-6 8,45 -55,68 -78,6zm370 -33c-13,22 -8,17 -33,13l3 -25c27,-5 13,-11 30,12zm-59 -48c-30,-6 -28,-2 -20,-33l33 4 -13 29zm-170 -39c32,-8 28,-7 42,21 -15,27 -16,24 -46,17 -4,-32 -8,-10 4,-38zm422 35c-73,31 -72,-69 0,-43 12,31 11,16 0,43zm-281 -92c1,16 8,22 -12,23 -34,1 -13,-3 -20,-19 10,-7 3,-6 19,-9l13 5zm-200 -37c39,0 40,44 -8,40l1 -38c2,0 5,-2 7,-2zm445 208c-46,-4 -87,-42 -96,-89 -7,-33 -2,-130 5,-160 73,7 241,92 197,162 -27,-7 -13,-2 -29,-34 -28,-59 -93,-76 -123,-49 -67,61 32,122 46,170zm-318 -243c-6,-30 8,-16 10,-21l24 7c-3,25 2,14 -15,28 -16,-6 -13,12 -19,-14z"/>
   <path class="fil0" d="M2358 4520c-17,23 -36,48 -53,71 -42,58 -46,103 -34,193 33,252 49,213 255,86 210,-128 118,-191 185,-451 18,-71 52,-185 84,-234 5,116 -168,413 3,638 149,197 184,94 252,-74 36,-87 49,-130 44,-237 -7,-161 -100,-422 -100,-422 -3,-35 -3,-16 8,-32 43,18 16,62 66,93 37,-22 9,-23 53,-29 -13,176 -65,253 73,478 32,52 93,100 169,120 84,22 197,17 268,-16 61,-29 121,-76 137,-152 37,-178 -134,-337 -288,-281 -38,14 -68,33 -88,62 -21,31 -18,75 -33,113 -96,-6 -57,-181 -23,-226 46,1 56,20 103,4 38,-103 -58,-140 -68,-199 -4,-22 1,-30 1,-50 0,-45 3,-24 -12,-37 -7,-23 -10,13 -42,9 -15,-2 -28,-20 -54,-25 -57,-11 -107,14 -131,-35 -41,-85 46,-6 -74,-173 -18,-24 -17,-33 -48,-40l-25 30c-5,10 -10,24 -15,35 -11,27 -21,48 -35,72 -136,223 -548,287 -787,234 -229,-50 -501,-328 -792,-246 -159,44 -55,79 -34,123 -30,20 -552,114 -559,-219 28,9 12,-8 49,53 109,175 406,160 446,-62 33,-175 -257,-413 -503,-274 -75,43 -150,142 -168,253 -26,159 24,231 88,335 49,80 133,160 220,210 262,151 347,17 351,129 1,26 4,118 23,131 39,12 77,7 98,-17 21,-24 16,-60 19,-98 65,-1 84,66 184,95 71,21 176,8 216,-38 -16,-32 -30,-28 -67,-43 -29,-17 -27,-7 -40,-38 10,-28 14,-26 40,-38 35,-3 47,157 303,8l65 -52c3,-1 7,-3 9,-4 17,-3 7,-1 16,3 3,26 -167,188 -192,214 -35,37 -66,62 -90,117 -18,43 -46,120 -36,168 63,13 411,-67 500,-200 65,-96 67,-72 149,-206 37,-60 90,-171 173,-170 32,70 -204,267 -259,341z"/>
   <path class="fil0" d="M5067 2271c44,-35 65,10 49,31 -12,16 -57,18 -49,-31zm377 -333c-4,-16 -4,-23 -10,-40 -1,-2 -4,-9 -5,-11 -6,-13 -5,-8 -12,-16 1,-58 -127,-294 -163,-353 -51,-85 -227,-336 -301,-408 -104,-101 -173,-196 -299,-296 -17,-13 -18,-16 -35,-31 -210,-188 -557,-346 -825,-421 -148,-41 -732,-167 -888,-89l-16 12c-15,12 -9,39 -23,65 -14,27 -22,26 -32,60 64,-21 159,-77 215,-7 -1,42 -17,31 -35,74 97,-25 163,-140 301,-27 -2,53 -32,61 -62,89 -31,29 -42,44 -68,75 53,-4 201,9 195,71 -2,22 -12,28 -32,66 -16,30 -38,55 -46,81 3,2 207,58 57,176 -10,9 -22,17 -33,25l-31 30c17,29 48,41 20,83 -18,28 -41,23 -55,57 43,20 231,52 299,70 95,25 191,57 280,92 85,33 181,78 252,119 280,163 401,265 633,497 59,59 118,136 170,201 24,28 19,26 36,55 55,88 120,180 177,270 18,46 78,121 145,113 37,-53 28,-126 49,-160 50,23 15,96 6,146 -10,74 14,159 77,48 80,-140 40,-73 69,-195 11,-45 45,-23 53,-77 13,-88 -23,-386 -63,-444zm-142 294c-39,8 -45,-1 -64,-18 4,-91 118,-51 64,18zm76 -147c-33,-21 -35,-38 0,-60 45,15 41,46 0,60zm-467 -37c-30,13 -17,10 -45,-3l-3 -25c37,-47 57,1 57,4 4,17 -9,24 -9,24zm179 -169c45,16 57,40 23,74l-52 -2c-17,-36 -12,-55 29,-72zm-378 -7c7,-30 13,-40 46,-38 11,11 31,37 8,61 -23,25 -46,-10 -54,-23zm503 2c50,-2 70,34 96,-20 16,-32 -9,-18 26,-29 21,32 -3,72 -30,83 -22,8 -92,21 -92,-34zm31 -105c33,9 19,-6 26,30 -27,8 -54,7 -26,-30zm-312 3c-90,15 -108,-67 -52,-91 58,-25 100,35 52,91zm139 -127c25,-2 51,6 79,-1 37,-8 19,-24 61,-38 59,84 -114,129 -140,39zm77 -89l6 33c-1,0 -45,23 -48,-15 -1,-25 28,-21 42,-18zm-639 -25c-76,11 -66,-52 -38,-70 34,-21 77,16 38,70zm355 -72c55,2 115,44 167,-39 21,-34 3,-39 34,-39 3,4 32,-8 -9,72 -44,85 -175,67 -192,6zm44 -41c23,-16 15,-8 36,-15 43,-13 24,-22 59,-32 15,27 8,45 -21,58 -9,4 -29,9 -43,8 -39,-5 -22,-8 -31,-19zm42 -79c-20,20 -2,16 -32,9 0,-1 -24,-5 11,-33 22,2 17,-6 21,24zm-781 -2c-17,-45 -17,-41 11,-74 42,-4 43,3 64,22 5,59 -24,65 -75,52zm288 -145c155,150 219,434 111,466 -50,4 -100,-34 -115,-67 42,-11 132,60 126,-99 -3,-97 -59,-175 -116,-259 -18,-27 -24,-26 -6,-41zm263 78c10,-45 57,-15 92,-53 26,-30 19,-76 45,-103 62,68 -42,215 -137,156zm60 -156c15,5 26,2 26,31 0,35 -47,84 -92,50 8,-10 -4,-7 24,-19 11,-5 22,-7 32,-10l10 -52zm-842 -5c35,-13 39,-13 71,0 12,52 -13,103 -76,53l5 -53zm762 30c-20,-28 -11,-30 16,-35 14,31 7,28 -16,35zm-427 332c-45,22 -142,-48 -134,-67 12,-8 -4,-5 14,-5 15,-1 83,39 114,-10 67,-104 -98,-342 -100,-347 -15,-55 -5,-16 5,-30 21,13 15,11 37,48 12,18 20,30 31,50 61,106 124,316 33,361zm193 -427c8,-36 -14,-15 20,-29 1,0 26,-3 31,-4 89,-15 67,-84 79,-129 75,27 6,204 -130,162zm-1 -66c12,-60 13,-15 45,-47 29,-27 -7,-25 33,-42 29,49 -32,92 -78,89zm-4 -71c-22,-10 -9,5 -20,-17 8,-33 25,-12 32,0l-12 17zm-386 382c-54,30 -146,-19 -157,-60 74,-10 133,27 148,-59 10,-58 -17,-117 -42,-157 -82,-134 -169,-181 -172,-229 51,11 173,159 194,199 34,63 113,253 29,306zm-397 -401c-39,-36 -61,-48 -112,-69 -63,-25 -89,-35 -162,-30 -98,5 -22,-48 18,-63 341,-123 589,372 320,510 -94,48 -217,10 -277,-44 -68,-61 -79,-205 11,-255 45,-25 99,-31 153,-8 19,8 46,25 55,36 25,27 10,37 42,52 5,-9 5,-5 7,-20 3,-37 -30,-87 -55,-109zm495 -116c33,-26 28,-3 43,-55 21,-73 61,16 4,65 -28,24 -36,20 -47,-10zm-32 -57c-8,-34 6,-34 26,-20 -10,31 1,18 -26,20zm176 -4c23,133 -96,167 -135,140 16,-33 25,-12 58,-33 92,-58 15,-137 41,-172 22,10 30,31 36,65zm-511 -107c-13,-30 -11,-24 11,-41 15,4 17,-2 22,16 5,19 -7,25 -9,30l-24 -5zm77 -76c62,-2 71,99 6,108 1,-25 10,-39 8,-58 -2,-24 -11,-20 -14,-50zm40 173c4,-56 58,-45 50,-115 -7,-69 -53,-46 -55,-98 103,-9 132,200 5,213zm-419 -195c-38,-13 -27,-15 -9,-35 20,7 34,9 9,35zm60 -24c-9,-26 -25,-14 -22,-47 6,-2 -14,-15 22,-2 29,9 73,101 -14,121 3,-24 20,-54 14,-72zm29 -97c152,23 85,258 -14,216 14,-43 55,-38 59,-99 4,-68 -36,-64 -45,-117z"/>
   <path class="fil0" d="M4714 2328c27,-28 20,-9 56,-26 24,-12 25,-25 47,-42 33,22 95,144 44,166 -63,27 -135,-82 -147,-98zm-2695 -758c-224,-24 -270,235 -168,315 107,83 305,8 222,-173 -32,-68 -64,-37 -83,-85 39,-24 76,-3 99,27 39,53 90,102 115,166 45,113 21,131 143,254 41,41 58,57 113,92 135,88 311,183 389,312 17,27 28,46 55,52 23,-33 15,-73 39,-90 27,-18 70,-9 108,-33 -11,-49 -52,-74 -58,-124 170,-26 72,4 273,-56 170,-50 46,-194 46,-194 58,-29 87,-15 120,-79 -1,-75 -47,-41 -65,-101 65,-70 122,-12 214,-15 15,-14 15,-19 32,-32 51,10 113,72 85,135 -64,11 -98,-61 -203,19 -115,89 -15,326 180,264 98,-31 67,-126 147,-137 32,44 35,71 91,120 13,11 114,96 141,49 14,-26 -10,-78 33,-67 24,6 100,137 194,126 19,-30 24,-62 41,-88 47,18 88,191 207,189 53,-1 39,-35 66,-67 36,2 30,8 52,32 15,17 27,31 44,46 82,73 323,202 362,146 23,-103 -147,-341 -190,-393 -140,-169 -276,-297 -456,-418 -299,-201 -628,-394 -982,-486 -309,-80 -694,-88 -972,88 -101,65 -178,114 -219,226 -45,124 -42,100 -107,43 -35,-30 -61,-58 -108,-63zm2405 667c18,-1 94,-5 104,9 9,20 9,100 -42,82 -33,-12 -66,-48 -62,-91zm17 -60c20,-27 25,-27 53,-10l-3 38c-50,9 -35,-7 -50,-28zm276 -49c8,14 10,19 8,41l-42 6c-6,-34 -3,-47 34,-47zm-597 -37c2,-1 6,-4 7,-1l110 -1c2,1 4,1 6,2 8,25 23,108 -16,121 -40,0 -122,-96 -107,-121zm-236 -6l59 3c33,-1 31,-13 61,-14 16,38 7,86 -3,120 -52,3 -142,-68 -117,-109zm738 -32c-15,11 17,9 -20,10 -33,1 -11,-2 -20,-6 -22,-60 53,-50 40,-4zm-478 -87l54 -5c66,104 -91,122 -54,5zm-255 5c0,-52 94,-61 92,-1 -2,62 -92,54 -92,1zm519 -28c-2,-44 5,-11 32,-44 23,-30 -7,-30 36,-46 12,45 9,49 -7,88l-61 2zm-183 -104c11,-26 3,-6 22,-26 27,-29 14,-36 23,-62 11,-34 -5,-8 22,-19 32,74 -28,133 -67,107zm-287 -167c55,-92 -1,-46 38,-92 51,35 4,116 -38,92zm110 17c-13,38 -40,51 -91,54 10,-52 38,-32 58,-71 19,-36 -5,-51 12,-87 41,14 37,62 21,104zm-390 -117c-62,4 -65,-55 -8,-50 9,15 10,28 8,50zm27 23c7,-20 20,-22 25,-48 8,-36 -8,-26 -13,-61 96,-10 36,152 -12,109zm69 -154c88,31 122,206 -31,231 12,-52 17,-29 48,-63 15,-16 25,-44 20,-72 -9,-58 -109,-122 -37,-96zm-1150 10c7,-35 -10,-7 20,-32l59 -40c77,-56 212,-121 317,-100 68,14 50,91 17,100 47,-6 108,-41 166,-54 85,-18 128,-17 191,17 2,162 -97,136 -93,177 28,10 191,0 219,53 49,96 -194,170 -259,185 -61,15 -129,24 -194,37 -68,13 -155,45 -179,28 11,-20 -2,-21 75,-35 123,-22 499,-67 526,-196 -139,-123 -536,83 -593,58 28,-51 369,-100 441,-221 99,-166 -249,-54 -418,61 -82,55 -90,52 -83,89 -63,-1 -51,24 -99,19 13,-43 37,-45 73,-69 31,-20 55,-38 84,-57 31,-21 50,-37 77,-63 13,-11 28,-23 36,-40 21,-48 -6,-46 -6,-46 -43,-43 -169,22 -206,43 -70,39 -141,97 -171,86z"/>
   <path class="fil0" d="M2181 1196c4,15 -3,5 11,26 45,68 153,88 232,80 97,-10 193,-55 286,-77 256,-59 433,-22 489,-31 27,-4 90,-43 93,-92 -128,-58 -562,29 -602,3 7,-19 -17,-11 27,-20l349 -34c101,-14 282,-42 321,-111 -16,-144 -257,-30 -339,-4 -56,18 -342,106 -376,94 7,-28 -7,-16 81,-43l291 -88c104,-32 278,-54 300,-215 -91,-102 -267,-4 -360,47 -53,29 -99,59 -154,85l-127 56c-26,9 -24,-1 -30,-16 50,-26 111,-48 168,-78 56,-29 107,-57 164,-91 53,-33 103,-58 154,-94 35,-25 110,-89 123,-132 -91,-107 -333,90 -397,155 -31,31 -178,157 -217,154 -1,-30 14,-32 36,-46 94,-57 215,-177 285,-260 22,-25 28,-22 27,-57l-14 -5c-11,-2 -13,-3 -24,-4 -103,-6 -279,144 -346,212 -30,30 -16,33 -53,44 16,-112 292,-235 266,-357 -77,-34 -270,110 -312,165 -52,68 -42,87 -75,99 -3,-5 -23,-6 11,-64 13,-23 24,-34 40,-50 53,-51 90,-54 96,-94 -52,-24 -197,59 -229,84 -126,99 -220,249 -258,410 -19,81 -28,224 21,282 7,15 9,22 17,37 3,4 6,11 10,16 9,11 4,5 15,14z"/>
   <path class="fil0" d="M1510 686c-46,8 -186,-107 -208,-133 -118,-139 -52,-204 -90,-272 -68,-15 -111,64 -112,131 -2,91 61,104 80,168 -81,49 -291,9 -383,249 -9,24 -14,43 -11,70 5,32 4,16 7,23 42,8 34,-5 61,-35 18,-22 30,-31 51,-48 45,-38 65,-68 142,-55l8 58c48,2 191,-40 246,-52 78,-18 181,-37 266,-37 98,1 173,14 238,64 58,44 91,99 119,186 37,-10 22,0 73,-54 28,-29 40,-37 24,-84 -43,-12 -81,9 -77,-39 5,-46 138,-187 149,-219 28,-84 -80,-186 -180,-155 -45,14 -42,25 -73,46 -26,-36 -1,-50 -51,-78 -67,0 -42,42 -82,66 -64,-16 -57,-111 -39,-171 18,-62 50,-121 120,-119 -1,52 -48,58 -16,118 17,34 65,41 114,30 82,-19 124,-115 78,-197 -29,-52 -100,-111 -165,-133 -180,-60 -238,91 -311,110 -44,11 -159,4 -207,92 -69,126 4,243 78,329 31,36 46,39 85,63l65 53c16,25 -4,-28 4,9 3,13 0,10 -3,16z"/>
   <path class="fil0" d="M3009 2489c-11,12 65,284 73,383 12,132 19,323 0,450 -27,167 -138,262 112,479 47,41 82,72 156,3 26,-24 71,-97 86,-146 74,-256 -57,-763 -196,-943 -74,-96 -93,-100 -166,-181 -16,-19 -42,-66 -65,-45z"/>
   <path class="fil0" d="M4962 4623c34,-44 9,-101 -6,-159 -72,-276 -72,-328 -253,-572 -35,-46 -149,-201 -193,-220 -93,-40 -97,48 -130,57 -81,22 -99,-51 -60,100 62,236 19,367 116,503 56,80 122,151 209,204 64,39 223,107 317,87z"/>
   <path class="fil0" d="M4113 3146l-122 -151c-37,-37 -67,-80 -132,-140 -243,-226 -329,-286 -611,-470 -50,-33 -111,-83 -191,-71 7,92 147,143 255,239 17,15 21,23 37,36 54,45 97,85 144,137 319,344 334,657 405,733 29,32 122,100 185,108 142,-74 91,-323 30,-421z"/>
   <path class="fil0" d="M3056 2464c55,131 372,226 433,884 17,178 -52,302 142,388 100,44 110,35 162,-43 143,-217 -102,-672 -253,-850 -60,-72 -120,-141 -189,-206 -43,-39 -91,-81 -141,-124 -93,-81 -115,-99 -154,-49z"/>
   <path class="fil0" d="M4660 3429c4,99 85,87 192,166 207,154 552,337 707,57 55,-100 24,-203 -37,-266 -131,-135 -388,-27 -581,-15 -64,5 -106,-2 -165,-5 -73,-4 -63,35 -116,63z"/>
   <path class="fil0" d="M5243 2918c81,138 -118,322 -324,361 -64,11 -165,-3 -217,18 5,22 -1,30 62,40 217,36 397,11 528,-166 150,-203 17,-469 -191,-501 -164,-25 -343,67 -345,267 -1,21 0,-3 -2,18 -29,257 420,333 460,47 14,-101 -5,-67 29,-84z"/>
   <path class="fil0" d="M4100 3849c-109,37 -177,231 -213,344 -53,162 -86,346 122,357 84,4 157,-21 214,-55 167,-100 114,-598 58,-665 -29,25 -36,76 -75,82 -46,6 -76,-44 -106,-63z"/>
   <path class="fil0" d="M3185 2282c-37,36 105,87 193,147 14,9 26,21 42,32 261,176 218,170 405,320 54,44 102,91 148,141 25,28 38,46 66,75 34,36 155,221 186,251 22,20 151,118 200,72 42,-40 -3,-201 -25,-239 -86,-146 -307,-334 -440,-426 -84,-58 -703,-442 -775,-373z"/>
   <path class="fil0" d="M5205 4207c60,1 116,9 156,-19 8,-54 -97,-196 -131,-245 -152,-214 -199,-208 -416,-344 -16,-10 -106,-60 -129,-62 -17,-1 -141,36 -155,44 -14,50 14,70 34,96 110,143 173,164 296,388 68,126 217,140 345,142z"/>
   <path class="fil0" d="M2957 2494c-40,79 -44,53 -35,153 15,161 -43,349 -123,474 -55,85 -107,72 -111,285 -1,83 38,291 103,304 62,13 163,-109 199,-192 90,-210 78,-478 49,-700 -9,-68 -56,-288 -82,-324z"/>
   <path class="fil0" d="M4214 3304c-23,85 -6,130 -54,221 -71,138 -79,51 -174,65 -15,41 -12,96 -23,142 -11,47 -32,88 -19,127 80,13 100,-33 156,-49 37,21 56,56 99,65 59,-30 52,-109 71,-182 37,-1 58,12 83,8 36,-7 30,-28 50,-49 29,-30 53,-5 80,-20 20,-11 16,-57 19,-80 43,-11 98,-18 135,-35 12,-62 -18,-55 -25,-102 24,-25 34,-15 55,-42 -15,-42 -62,-69 -52,-111 30,-17 62,-12 89,-35 37,-31 47,-122 -31,-106 -25,5 -31,13 -62,15 -47,3 -81,-18 -136,-19 -2,139 30,303 -155,234 -18,-7 -31,-13 -48,-26 -27,-19 -17,-22 -58,-21z"/>
   <path class="fil0" d="M3342 2269c18,46 33,41 82,57 220,72 539,279 706,424 49,42 95,73 135,119 44,51 62,88 132,125 46,24 174,51 212,6 68,-82 -25,-232 -165,-301 -262,-129 -416,-209 -701,-306 -64,-22 -127,-40 -192,-64 -69,-25 -123,-57 -209,-60z"/>
   <path class="fil0" d="M2937 3703c-45,0 -104,68 -144,97 -43,33 -95,61 -156,82 -64,21 -139,31 -202,1 -48,-23 -105,-63 -102,-137 55,10 13,40 75,89 34,27 88,42 141,35 80,-10 205,-171 24,-315 -119,-95 -294,-20 -342,95 -85,205 204,501 558,253 47,-34 152,-144 148,-200z"/>
   <path class="fil0" d="M3555 2278c12,32 85,49 132,65 259,88 471,174 716,298 78,40 206,128 303,52 96,-77 -64,-182 -130,-217 -89,-49 -192,-77 -299,-106 -164,-44 -545,-109 -722,-92z"/>
   <path class="fil0" d="M2309 4032c43,0 53,1 72,-23 -51,-63 -81,-32 -164,-155 -41,-60 -111,-135 -187,-153 -23,-5 -178,-23 -194,-16 -79,36 79,270 252,302 67,13 64,45 221,45z"/>
   <path class="fil0" d="M3518 1192c152,121 416,-54 266,-300 -62,-102 -181,-193 -305,-145 21,17 -22,4 30,24 42,16 46,10 100,40 41,23 87,49 113,77 82,95 21,259 -31,255 -1,-2 -2,-5 -2,-7l-3 -23c-1,-23 10,-54 0,-89 -19,-69 -196,-117 -233,-5 -27,80 30,145 65,173z"/>
   <path class="fil0" d="M3903 4099c-40,16 -61,45 -113,54 -61,11 -96,2 -124,-37 23,-13 29,-6 41,-5 9,0 9,2 21,1l92 -20c104,-55 65,-230 -40,-259 -156,-44 -324,205 -156,330 46,34 213,78 247,13 11,-20 25,-52 32,-77z"/>
  </g>
 </g>
</svg>
