<?xml version="1.0" encoding="UTF-8"?>
<!DOCTYPE svg PUBLIC "-//W3C//DTD SVG 1.1//EN" "http://www.w3.org/Graphics/SVG/1.1/DTD/svg11.dtd">
<!-- Creator: CorelDRAW X6 -->
<svg xmlns="http://www.w3.org/2000/svg" xml:space="preserve" width="321.08mm" height="322.823mm" version="1.1" style="shape-rendering:geometricPrecision; text-rendering:geometricPrecision; image-rendering:optimizeQuality; fill-rule:evenodd; clip-rule:evenodd"
viewBox="0 0 34442 34629"
 xmlns:xlink="http://www.w3.org/1999/xlink">
 <defs>
  <style type="text/css">
   <![CDATA[
    .fil1 {fill:#1780F0}
    .fil0 {fill:#1780F0;fill-rule:nonzero}
   ]]>
  </style>
 </defs>
 <g id="Слой_x0020_1">
  <metadata id="CorelCorpID_0Corel-Layer"/>
  <path class="fil0" d="M3897 9930l-1844 -933 84 -166 -33 -17 -531 1049c1,6 4,9 8,11 11,6 30,8 57,8 27,0 56,-5 87,-13 31,-9 60,-23 89,-42 28,-19 50,-46 67,-79 2,-4 3,-10 3,-19 -6,3 -13,3 -21,-1 -11,-5 -20,-18 -27,-38 -8,-20 -13,-44 -18,-71 -4,-28 -5,-59 -2,-92 3,-33 9,-67 20,-101l12 -25 194 98c192,97 323,327 392,689 86,458 259,753 519,885 93,47 201,80 324,101 -10,35 -21,66 -34,96 -13,29 -24,57 -33,82 -9,26 -16,46 -20,61 -5,16 -3,25 4,29 0,0 11,-2 34,-4 22,-3 48,-9 77,-19 29,-9 59,-24 89,-43 31,-19 55,-45 72,-79 2,-3 2,-8 0,-14 -10,0 -20,-2 -31,-8 -46,-23 -47,-119 -4,-287 19,-74 43,-150 73,-228 30,-77 66,-157 107,-238 41,-81 84,-157 129,-227 44,-70 92,-136 142,-199 112,-138 191,-196 237,-172 11,5 19,15 23,29 0,0 5,-4 13,-11 17,-33 24,-68 21,-104 -2,-36 -9,-69 -18,-98 -10,-29 -20,-53 -31,-73 -11,-19 -16,-29 -16,-29 -6,-3 -11,-4 -16,-4 -30,37 -62,81 -93,130 -32,49 -67,104 -105,166zm-409 753c-198,2 -381,-40 -549,-125 -201,-102 -339,-248 -414,-439 -92,-249 -164,-410 -214,-484l1359 688 -182 360zm895 -1899c-24,-223 -7,-374 49,-453 24,-34 53,-39 87,-15l394 282 -15 20 31 21 385 -540 -30 -22 -105 147 -1788 -1276 104 -147 -30 -21 -386 540 31 22 14 -20 1228 876c-24,54 -42,127 -54,220 -18,127 -4,239 40,334l-1481 -1056 15 -20 -31 -22 -385 541 30 21 105 -146 1788 1275 -104 147 30 22 386 -541 -30 -22 -15 20 -263 -187zm1347 -2016c-87,-17 -263,-22 -529,-14 -204,5 -408,-81 -614,-258 -175,-151 -303,-327 -384,-528l16 -19 -28 -24 -482 559 28 24 113 -131c31,56 66,108 105,154 40,46 81,88 125,126 271,233 634,303 1089,210 363,-76 626,-43 789,97l164 142 -352 409 28 25 770 -894 -28 -24 -122 141 -1664 -1434 122 -141 -29 -25 -433 503 28 25 16 -19 1272 1096zm13 -2359l134 -116 -25 -28 -618 533 24 28 137 -117 1434 1664 -136 117 24 29 1180 -1018c-27,-66 -58,-128 -92,-185 -34,-56 -72,-109 -114,-158 -233,-271 -583,-393 -1048,-366 -364,19 -617,-54 -759,-219l-141 -164zm1730 1409l-296 255 -1096 -1272c43,15 106,31 190,48 84,16 193,32 327,48 203,27 392,142 568,346 149,172 251,364 307,575zm1749 -3793l22 -12 -18 -33 -476 254 17 33 50 -26 1340 1171c-159,119 -229,198 -208,237 13,25 43,37 89,35 46,-2 99,-4 161,-7 -22,-161 114,-328 410,-499 35,159 46,285 31,377 -15,64 -44,126 -88,184 -44,59 -100,106 -170,143 -45,24 -76,22 -92,-7l-21 -80c-13,-24 -39,-25 -79,-4 -17,9 -41,24 -73,46 -32,21 -63,46 -93,72 -30,27 -54,54 -72,83 -18,28 -21,53 -9,75 12,24 33,36 63,36 30,1 63,-4 99,-15 36,-11 73,-26 109,-43 37,-17 68,-32 93,-46 136,-72 252,-171 348,-297 140,-182 108,-578 -96,-1186 -177,-531 -256,-904 -237,-1119l-520 277 17 33 22 -11c3,10 17,38 41,83 36,68 93,170 172,306 78,137 178,307 299,512 13,21 25,42 36,62 10,18 20,37 30,58 38,71 72,142 103,212 30,71 55,142 75,213l-61 32 -1314 -1149zm2308 -756l-70 -206 259 -88 69 206c2,6 12,17 30,34 18,17 40,35 67,53 27,18 57,37 91,56 34,19 68,34 102,44 95,29 175,49 240,59 64,11 117,13 159,6 -110,-46 -185,-130 -226,-251l-130 -382 -1278 433 12 36 170 -58 706 2080 -170 58 12 35 1475 -500c-1,-72 -6,-141 -16,-206 -10,-66 -26,-129 -46,-189 -115,-339 -394,-583 -835,-733 -344,-119 -551,-281 -621,-487zm1006 1749l-370 126 -539 -1590c34,30 87,68 158,115 72,47 167,102 285,167 178,101 311,279 397,534 73,215 96,431 69,648zm1308 -700c132,-180 246,-281 341,-302 40,-8 65,7 74,48l102 473 -25 5 8 37 649 -140 -8 -37 -176 38 -462 -2147 176 -38 -8 -37 -649 140 7 37 25 -6 317 1475c-54,24 -116,66 -188,126 -99,83 -164,174 -195,274l-383 -1778 24 -5 -8 -36 -649 140 8 36 176 -38 463 2148 -176 38 8 36 649 -140 -8 -36 -24 5 -68 -316zm1958 -2212l135 2193 -676 42 3 37 1802 -111 -2 -37 -675 42 -135 -2193 254 -16 30 493c1,20 26,47 75,79 49,32 104,63 166,92 62,30 121,54 178,75 58,20 96,30 114,29 -38,-46 -65,-90 -81,-132 -16,-43 -26,-99 -31,-169l-32 -530 -1803 111 33 529c4,71 -1,127 -15,171 -13,43 -38,87 -72,130 14,-1 37,-7 68,-20 32,-12 66,-28 105,-46 38,-19 77,-41 117,-65 40,-24 76,-48 109,-72 33,-24 59,-47 80,-69 20,-22 30,-40 29,-54l-30 -493 254 -16zm2650 2200l-24 -3 -4 37 662 60 3 -37 -185 -17 197 -2188 186 17 3 -37 -1171 -106c-3,2 -4,6 -5,12 -1,13 3,31 13,56 9,25 23,50 43,75 19,26 44,49 73,68 29,19 63,30 100,34 6,0 11,-1 16,-5 -4,-2 -6,-8 -5,-16 2,-21 26,-47 71,-79 45,-33 110,-51 194,-56l30 3 -19 210c-19,212 -185,418 -498,619 -392,249 -604,552 -636,908 -6,58 -6,117 -2,177 3,61 14,122 31,184l-173 -16 -3 37 735 67 4 -37 -25 -3c-41,-93 -69,-197 -84,-312 33,-93 207,-149 520,-168l-47 516zm52 -569c-118,-4 -222,-6 -311,-5 -90,2 -165,7 -226,16 -2,-21 -3,-41 -1,-60 2,-18 4,-38 5,-58 25,-272 112,-478 262,-619 197,-177 320,-303 370,-377l-99 1103zm1729 823l-25 -4 -6 36 686 116 6 -37 -208 -35 327 -1940c10,-63 9,-115 -3,-155 -12,-39 -34,-72 -67,-97 -32,-26 -75,-46 -128,-61 -53,-16 -116,-29 -190,-42 -77,-13 -159,-23 -246,-32 -87,-8 -168,-6 -245,6 -76,12 -143,39 -199,80 -56,41 -92,105 -106,193 -19,110 1,197 58,261 57,65 136,105 236,122 47,8 93,12 139,12 46,1 94,-3 144,-12 -44,35 -95,70 -154,105 -60,35 -127,73 -200,113 -413,218 -649,504 -708,859 -21,124 -19,258 8,401l544 92 6 -37 -24 -4c-66,-206 -80,-424 -41,-652 45,-269 149,-466 313,-589 183,-143 302,-250 356,-321l-273 1622zm304 -1806c-11,66 -28,111 -51,135 -23,24 -61,32 -114,23 -33,-5 -65,-17 -98,-35 -33,-18 -62,-41 -87,-70 -26,-28 -46,-61 -59,-98 -14,-37 -17,-78 -10,-123 7,-40 22,-76 45,-105 23,-30 50,-54 83,-71 32,-18 68,-30 108,-36 40,-6 80,-5 121,2 75,12 112,44 110,94l-48 284zm3838 1492c14,16 26,31 39,46 12,15 37,31 74,49 77,37 147,60 211,70 64,10 128,9 190,-3 43,-7 78,-21 105,-43 27,-21 49,-48 65,-82 33,-69 38,-138 15,-206 -22,-68 -61,-131 -115,-190 -54,-60 -118,-113 -191,-162 -73,-48 -144,-89 -211,-121 -123,-58 -229,-86 -317,-84 -89,3 -156,54 -203,153l-846 1776 -190 -90 -16 33 1406 669c104,-101 183,-209 237,-323 154,-324 124,-693 -88,-1108 -77,-151 -132,-279 -165,-384zm-769 1401l707 -1486c4,48 16,111 35,187 18,77 44,171 78,283 57,197 28,417 -87,660 -100,209 -236,379 -408,510l-325 -154zm903 -1897c10,-23 29,-38 56,-46 26,-8 58,-3 96,15 58,27 88,66 91,115 3,50 -14,112 -49,187 -40,84 -80,145 -119,184 -39,38 -86,44 -142,18 -32,-15 -57,-36 -74,-63 -20,-34 -12,-90 25,-167l116 -243zm1245 1325c14,-53 30,-101 48,-146 19,-45 40,-86 64,-125 142,-224 305,-277 490,-160 168,106 216,275 142,508l389 245c80,-268 -63,-517 -431,-749 -101,-64 -201,-104 -301,-122 -99,-17 -194,-13 -285,13 -91,26 -175,71 -254,135 -78,64 -149,147 -212,246 -30,49 -56,97 -75,143 -20,47 -34,96 -42,148 -8,52 -12,109 -11,171 2,62 8,133 18,213 10,63 23,136 38,219 16,83 37,176 63,278 25,104 9,202 -50,295 -55,88 -121,112 -199,72 -8,-2 -19,-8 -33,-17 -20,-12 -33,-26 -39,-41 -6,-15 -6,-28 2,-41 6,-8 18,-18 37,-29 19,-12 33,-23 41,-36 11,-17 0,-36 -31,-56 -55,-17 -106,-33 -153,-48 -47,-15 -90,-29 -128,-41 -20,-12 -40,-16 -61,-11 -22,5 -35,12 -41,21 -34,54 56,148 269,283 96,61 188,108 275,142 88,35 174,54 259,59 85,4 172,-6 261,-30 89,-25 184,-65 285,-121 111,-63 216,-139 316,-230 100,-91 195,-199 286,-323l-391 -206 -76 121c-78,123 -148,227 -211,313 -63,86 -120,156 -173,208 -201,199 -394,251 -579,156 142,9 248,-43 318,-155 77,-123 119,-324 124,-604 6,-347 18,-564 37,-652 542,315 835,439 877,373 20,-33 13,-74 -24,-123 -36,-49 -85,-99 -144,-152l-4 12c-26,41 -105,44 -239,11 -68,-16 -139,-37 -214,-65 -74,-27 -153,-61 -238,-102zm824 2391c-34,-27 -43,-51 -26,-72l84 -68c14,-18 5,-39 -28,-65 -106,-49 -198,-88 -277,-119 -43,-18 -74,-16 -90,5 -40,50 40,153 239,309 89,70 174,126 255,167 81,41 163,68 247,82 83,15 172,15 264,2 93,-12 196,-39 309,-79 132,-44 246,-100 344,-168 98,-68 192,-159 281,-273l-405 -258 -136 174c-354,452 -661,609 -920,470 142,13 259,-39 352,-158 111,-142 178,-358 200,-648 28,-330 124,-601 290,-813 164,-209 325,-250 485,-125 151,118 171,315 58,589l367 287c28,-66 42,-138 41,-214 -1,-75 -17,-151 -47,-227 -29,-76 -72,-150 -126,-223 -55,-73 -121,-140 -199,-202 -98,-76 -195,-128 -292,-155 -97,-28 -191,-33 -283,-17 -91,16 -180,54 -265,112 -85,58 -164,135 -238,229 -67,85 -114,178 -143,280 -29,103 -41,229 -36,381 1,39 7,92 19,158 11,65 20,134 26,207 6,73 5,145 -2,214 -7,69 -29,128 -66,175 -39,50 -82,80 -128,88 -46,9 -92,-2 -137,-32l-17 -13zm1502 1326c70,-205 188,-388 355,-549 193,-186 392,-284 597,-292 265,-6 441,-20 528,-43l-1208 1166 -17 -18 -27 26 461 477 27 -25 -129 -134 1580 -1526 129 133 27 -25 -819 -849c-9,9 -18,26 -28,51 -10,26 -16,55 -19,88 -3,33 0,67 8,102 8,35 25,66 51,93 3,3 9,6 17,9 -1,-4 1,-9 7,-15 9,-9 24,-13 46,-15 22,-1 48,2 76,9 28,7 59,19 93,34 33,15 65,34 95,56l2 3 -156 151c-155,149 -415,196 -781,142 -460,-68 -819,22 -1076,271 -42,40 -81,84 -118,132 -36,49 -68,102 -96,160l-120 -125 -27 26 513 531 27 -26 -18 -18zm1549 1102c-12,99 -61,182 -148,250 -50,39 -95,56 -133,51 -38,-6 -73,-28 -104,-67 -34,-44 -36,-78 -5,-102l54 -42c26,-21 26,-47 1,-80 -12,-15 -32,-35 -61,-63 -29,-27 -60,-52 -94,-76 -33,-24 -65,-43 -95,-57 -31,-14 -54,-15 -69,-4 -19,15 -26,38 -20,69 6,31 17,64 34,100 17,35 37,69 61,102 23,33 43,60 59,81 142,181 284,313 428,395 143,82 285,126 425,132 140,6 279,-21 417,-80 139,-60 274,-142 406,-245 119,-93 221,-193 308,-299 86,-105 148,-217 185,-334 37,-117 45,-238 22,-362 -22,-124 -83,-250 -183,-377 -74,-95 -154,-166 -242,-214 -88,-48 -179,-76 -273,-82 -94,-6 -190,8 -288,42 -98,35 -192,88 -284,159 -86,68 -154,146 -205,236 -51,90 -93,211 -126,363 -12,62 -25,135 -38,218 -13,84 -24,179 -32,286zm1349 -1096c12,12 20,21 25,28 7,8 13,16 19,24 47,60 74,128 78,203 5,75 -12,156 -50,242 -39,87 -100,179 -185,277 -85,98 -193,199 -325,302 -285,224 -527,369 -725,436 -199,67 -363,40 -492,-82 134,47 261,24 380,-69 141,-111 258,-304 349,-580 106,-315 265,-555 476,-721 184,-144 334,-164 450,-60zm-31 4104l-12 -22 -33 17 315 592 33 -17 -87 -165 1939 -1032 88 165 33 -18 -315 -591 -33 17 12 22 -291 154c-2,1 -23,-2 -64,-11 -41,-9 -96,-19 -166,-31 -70,-12 -150,-24 -241,-34 -91,-10 -187,-16 -289,-18 -102,-2 -206,2 -312,11 -106,10 -209,29 -308,59 86,-58 164,-127 235,-206 70,-80 131,-163 184,-251 53,-88 99,-175 139,-262 39,-87 72,-164 99,-234 26,-69 46,-125 61,-169 14,-44 22,-66 24,-67l284 -152 12 22 33 -17 -312 -587 -33 18 85 159 -1940 1031 -84 -159 -33 18 312 586 32 -17 -11 -22 1559 -829c-88,161 -171,296 -248,406 -78,109 -156,202 -235,279 -78,77 -158,142 -240,196 -81,54 -170,106 -265,157l-358 191 -12 -22 -33 17 245 461 33 -18 -12 -22 123 -65c119,-63 224,-118 315,-164 92,-47 176,-86 253,-117 77,-32 151,-56 223,-73 72,-17 149,-29 231,-35 82,-6 173,-7 271,-2 99,5 214,13 345,26l-1551 825z"/>
  <g id="_750314800">
   <path class="fil0" d="M227 19365l-2 -31 -46 4 60 831 46 -3 -17 -231 2726 -198 17 231 46 -3 -60 -832 -46 4 2 31 -408 29c-3,0 -25,-15 -67,-45 -43,-31 -100,-70 -174,-119 -73,-49 -159,-102 -257,-160 -98,-57 -205,-113 -320,-166 -114,-54 -235,-102 -360,-144 -126,-43 -253,-72 -380,-89 127,-22 251,-61 371,-116 120,-55 232,-119 336,-192 104,-74 201,-150 289,-228 89,-79 165,-151 230,-216 65,-66 117,-120 155,-163 38,-42 58,-64 61,-64l400 -29 3 31 46 -4 -60 -823 -46 3 16 223 -2726 198 -16 -223 -46 3 60 824 46 -4 -2 -30 2190 -159c-181,139 -343,252 -486,337 -144,85 -279,152 -407,200 -129,48 -253,82 -372,102 -120,20 -247,35 -380,45l-505 37 -2 -31 -46 3 47 647 46 -3 -2 -31 173 -13c167,-12 314,-21 441,-28 127,-6 243,-8 346,-6 104,3 200,13 291,30 90,16 183,42 280,76 97,34 200,79 310,134 109,56 236,123 378,203l-2179 158zm432 2349l-7 -30 -45 10 182 806 46 -11 -52 -225 2666 -604 51 226 45 -10 -323 -1427c-3,-2 -8,-2 -16,0 -15,3 -35,15 -61,35 -26,21 -50,47 -73,80 -23,33 -40,71 -52,113 -11,42 -12,86 -2,131 2,7 6,13 12,17 2,-6 7,-9 17,-12 26,-5 66,12 121,54 56,41 103,111 140,208l9 37 -256 58c-259,59 -566,-59 -923,-353 -445,-369 -884,-504 -1319,-406 -70,16 -140,38 -210,66 -71,27 -139,63 -206,107l-47 -210 -45 10 202 896 46 -10 -7 -30c94,-85 207,-158 338,-219 122,3 255,187 398,551l-629 142zm693 -157c-40,-141 -78,-265 -114,-370 -35,-105 -70,-192 -104,-261 24,-11 47,-19 69,-24 23,-5 47,-10 72,-16 331,-75 609,-51 832,73 285,165 481,263 589,294l-1344 304zm2528 1222l-424 167c-12,5 -27,18 -44,40 -18,22 -37,52 -57,89 -20,37 -40,79 -60,127 -19,48 -36,100 -51,155 -27,107 -45,200 -55,277 -9,77 -10,143 -3,198 25,-43 49,-80 71,-111 22,-31 46,-58 71,-82 26,-24 53,-44 82,-61 29,-17 64,-34 105,-50l614 -241 -624 -1588 -43 17 82 208 -2543 1001 -82 -209 -44 17 625 1588 43 -17 -333 -848 2543 -1000 127 323zm-1514 3083l-15 -27 -40 23 412 716 40 -23 -116 -201 2368 -1365 116 201 40 -23 -731 -1268c-3,-1 -8,1 -15,5 -13,8 -29,25 -48,52 -18,27 -34,60 -46,98 -12,38 -17,79 -16,123 2,43 14,85 37,125 4,7 9,11 16,13 0,-5 4,-11 13,-16 22,-13 66,-8 132,15 65,24 130,76 195,158l19 33 -227 131c-230,132 -559,111 -986,-64 -535,-221 -994,-220 -1380,2 -63,36 -123,78 -182,125 -59,47 -114,102 -164,164l-108 -188 -40 23 458 796 41 -23 -16 -27c65,-108 151,-211 259,-309 118,-32 299,104 543,409l-559 322zm615 -355c-80,-123 -152,-230 -217,-320 -66,-90 -125,-163 -178,-218 20,-18 40,-32 60,-44 20,-11 41,-24 64,-36 294,-170 566,-229 816,-177 321,73 538,109 649,107l-1194 688zm586 1351c-46,-11 -108,-25 -187,-40 -79,-15 -174,-38 -287,-68 -125,-28 -199,-34 -222,-18 -25,18 -11,75 41,171 52,95 127,211 224,347 50,72 118,134 203,187 91,56 147,75 170,59 13,-9 14,-25 3,-49 -38,-103 -68,-183 -91,-241 -22,-59 -36,-95 -41,-111 -29,-42 -54,-56 -73,-43 -10,8 -23,25 -39,52 -15,27 -28,44 -39,51 -33,24 -76,1 -126,-71 -75,-105 -92,-171 -52,-200 37,-26 219,5 545,95 120,35 255,63 406,84 150,20 301,30 450,27 150,-2 294,-18 431,-48 137,-29 252,-78 346,-145 42,-30 79,-61 109,-94 30,-32 51,-68 61,-107 10,-39 9,-81 -3,-128 -13,-46 -39,-98 -80,-154 -34,-48 -77,-93 -129,-133 -53,-40 -102,-86 -149,-138l999 284 -918 -1289c-13,9 -27,28 -44,57 -17,30 -30,64 -40,104 -9,40 -12,83 -9,128 4,44 20,87 48,127 3,4 8,6 15,8 3,-9 10,-17 21,-25 15,-10 42,-7 83,10 40,17 84,42 133,74 48,32 95,70 142,114 47,44 86,88 118,132 15,21 24,36 28,46l-1130 -323c98,97 181,183 250,258 68,74 123,140 163,196 33,46 48,93 46,141 -3,47 -16,93 -38,136 -23,43 -55,84 -96,122 -40,38 -81,72 -120,100 -78,55 -158,106 -241,152 -82,46 -169,83 -259,111 -91,28 -188,48 -291,58 -103,10 -213,8 -331,-6zm1179 1677c278,23 459,79 542,166 35,38 34,74 -3,110l-436 415 -21 -23 -34 32 569 599 34 -32 -154 -162 1980 -1884 154 162 33 -32 -569 -598 -34 31 22 23 -1359 1293c-61,-42 -147,-81 -257,-118 -151,-51 -290,-61 -417,-30l1639 -1559 21 22 34 -32 -570 -598 -33 32 154 162 -1980 1884 -154 -162 -34 32 570 598 33 -32 -21 -22 291 -277zm2784 518c42,59 97,122 166,189 68,67 150,138 245,212l-1177 1500 -25 -19 -28 36 649 511 29 -37 -176 -138 1688 -2150 176 139 28 -37 -649 -510 -29 37 24 19 -467 595c-192,-177 -302,-344 -332,-502l350 -446 24 19 29 -37 -650 -510 -28 37 176 138 -1688 2149 -176 -138 -29 37 650 510 29 -37 -25 -19 1216 -1548zm3171 3694c26,-67 212,-172 556,-316 133,-55 260,-108 382,-158 123,-50 234,-103 336,-160 101,-56 190,-121 268,-195 77,-73 136,-160 175,-260 33,-81 42,-161 28,-238 -14,-77 -43,-152 -88,-224 -45,-72 -103,-140 -174,-206 -71,-65 -147,-126 -229,-181 -81,-56 -166,-106 -254,-151 -87,-44 -169,-81 -246,-112 -88,-35 -166,-62 -231,-81 -66,-19 -124,-25 -174,-17 -50,8 -94,30 -130,67 -37,37 -71,95 -102,174l-891 2250 -215 -85 -17 43 1364 539 17 -43 -625 -247 138 -348c66,79 158,141 275,188 69,27 127,46 173,56 46,9 82,13 109,12 27,-2 47,-9 61,-22 13,-13 22,-26 28,-41 10,-26 7,-54 -11,-83 -17,-29 -41,-56 -71,-82 -30,-26 -61,-48 -93,-68 -33,-20 -57,-33 -74,-39 -43,-18 -70,-13 -80,13 -2,5 -3,15 -3,28 0,14 0,29 -1,46 -1,16 -2,31 -2,45 1,14 -1,24 -4,31 -8,22 -29,26 -63,13 -12,-5 -26,-12 -43,-22 -17,-9 -33,-20 -49,-33 -16,-14 -28,-27 -37,-42 -10,-15 -12,-30 -6,-44l3 -7zm1053 -1950c167,166 190,402 69,708 -137,347 -359,620 -664,817 -158,101 -284,185 -375,252 -92,68 -148,121 -169,160l798 -2018c23,-59 81,-71 172,-35 59,23 116,62 169,116zm1469 437l30 8 12 -45 -646 -182 -13 45 67 19 197 2205c-246,-29 -376,-18 -391,34 -9,35 7,71 50,108 43,38 93,82 151,133 119,-164 384,-197 797,-96 -105,173 -203,295 -295,366 -69,44 -148,74 -238,89 -90,15 -182,9 -276,-17 -62,-18 -87,-46 -76,-86l50 -90c9,-33 -14,-56 -69,-72 -22,-6 -57,-13 -104,-21 -47,-8 -96,-13 -146,-15 -50,-2 -95,2 -136,12 -40,10 -64,30 -73,59 -9,33 0,62 26,88 26,26 60,49 102,71 42,21 87,40 135,56 47,16 89,29 123,38 184,52 373,63 569,32 282,-43 593,-426 933,-1148 298,-630 548,-1033 750,-1209l-706 -199 -13 45 30 8c-6,12 -18,49 -35,111 -26,91 -62,232 -109,422 -47,190 -105,429 -172,718 -6,30 -13,59 -21,86 -7,25 -14,51 -22,78 -27,97 -57,190 -90,279 -34,90 -72,175 -117,256l-81 -23 -193 -2163zm1649 3132c-54,-7 -78,-27 -74,-60l47 -126c3,-28 -21,-46 -72,-52 -144,15 -268,32 -372,51 -58,8 -89,29 -93,62 -10,79 141,138 452,177 141,18 267,22 380,15 112,-8 218,-31 316,-70 98,-38 192,-94 283,-166 91,-73 184,-167 279,-283 112,-131 199,-264 260,-399 61,-135 103,-292 125,-470l-597 -17 -34 272c-89,710 -316,1073 -681,1089 160,-75 251,-207 275,-393 28,-222 -39,-495 -201,-819 -182,-370 -252,-721 -210,-1053 41,-327 186,-475 436,-443 238,29 384,227 440,592l574 72c-12,-90 -43,-175 -92,-255 -50,-80 -115,-151 -195,-213 -81,-62 -173,-115 -278,-158 -105,-43 -219,-72 -341,-87 -153,-19 -290,-12 -411,20 -121,33 -225,88 -312,163 -88,76 -158,173 -212,289 -53,117 -89,249 -108,397 -16,133 -8,263 27,390 35,128 103,271 205,429 26,42 66,94 120,157 55,62 108,131 161,205 53,74 98,150 135,229 37,78 51,155 41,229 -10,79 -36,138 -80,176 -44,39 -99,56 -166,53l-27 -3zm2229 194c-54,1 -81,-15 -82,-48l27 -132c-1,-29 -27,-42 -78,-41 -141,37 -261,73 -360,106 -57,17 -84,42 -83,76 2,80 160,115 474,107 141,-4 267,-18 377,-43 110,-24 211,-63 302,-116 91,-52 176,-122 255,-207 79,-86 157,-193 233,-321 91,-147 157,-291 197,-434 40,-143 58,-304 53,-484l-593 74 7 274c19,715 -151,1108 -509,1179 147,-99 217,-242 213,-430 -6,-224 -114,-484 -322,-780 -236,-338 -358,-675 -367,-1009 -8,-330 114,-497 366,-504 239,-6 413,167 523,519l579 -15c-26,-87 -69,-166 -130,-238 -61,-72 -136,-132 -225,-182 -89,-49 -188,-87 -298,-113 -110,-27 -227,-39 -351,-35 -154,4 -288,31 -403,82 -114,50 -209,120 -284,208 -75,88 -130,194 -165,317 -36,123 -52,259 -48,409 4,133 32,261 86,381 53,121 142,252 267,393 32,38 79,84 142,137 64,54 127,113 190,179 64,65 120,134 168,206 48,72 73,145 75,220 2,80 -15,142 -53,187 -37,44 -89,70 -156,77l-27 1zm2117 -2181c113,92 214,174 305,245 91,72 170,147 239,227 68,79 125,171 171,276 45,104 78,236 98,394 18,146 21,285 8,419 -13,134 -42,265 -85,392l-31 4 6 46 904 -114 -6 -46 -207 26c28,-153 32,-303 14,-449 -19,-145 -68,-287 -149,-426 -81,-139 -181,-270 -301,-392 -119,-123 -251,-233 -397,-332 -146,-98 -293,-179 -441,-244 101,21 208,25 320,11 130,-17 236,-42 317,-77 81,-35 143,-85 185,-150 43,-65 68,-150 75,-255 8,-104 2,-235 -18,-390l192 -24 -6 -46 -728 91c18,34 32,72 44,113 12,42 20,84 26,128 20,158 -5,280 -73,367 -68,86 -167,137 -298,154 -45,5 -87,-1 -123,-20 -36,-19 -57,-51 -62,-97l-67 -528 31 -4 -6 -46 -820 103 6 46 222 -28 342 2711 -223 28 6 46 820 -103 -6 -46 -31 4 -253 -2014zm2658 1110c151,-235 284,-369 400,-402 50,-14 82,4 96,54l163 579 -30 8 13 45 795 -224 -13 -45 -215 61 -741 -2630 215 -61 -12 -45 -796 224 13 45 30 -8 509 1805c-66,35 -140,92 -225,172 -116,110 -189,228 -221,355l-613 -2177 30 -9 -13 -44 -795 224 13 44 215 -60 741 2630 -215 61 12 44 795 -224 -12 -44 -30 8 -109 -386zm1883 -2081l1229 1310 -28 13 19 42 698 -313 -19 -42 -134 60 -1534 -1516c87,-214 155,-397 202,-550 48,-152 74,-275 81,-368l267 -120 -19 -42 -711 319 19 42 28 -13c11,12 21,25 30,40 9,14 18,30 27,49 81,181 87,377 18,588l-484 -494 28 -12 -18 -43 -916 411 19 42 373 -167 756 706c-68,402 -104,699 -109,890 -5,189 4,369 29,541 25,172 67,339 124,499l-56 25 19 42 761 -341 -19 -42 -28 13c-230,-148 -398,-341 -505,-578 -115,-258 -165,-589 -147,-991zm3001 -3170l1884 1980 -610 580 32 33 1628 -1548 -32 -34 -610 580 -1884 -1980 230 -218 423 445c17,18 62,24 134,15 73,-8 150,-23 232,-44 83,-22 159,-46 230,-72 71,-27 115,-48 131,-64 -72,-13 -133,-33 -182,-61 -50,-27 -105,-73 -165,-136l-455 -478 -1627 1548 455 479c60,63 101,121 122,173 22,53 33,113 35,183 13,-13 30,-37 50,-74 20,-37 41,-80 62,-128 21,-49 41,-101 60,-156 18,-55 34,-107 46,-156 12,-49 19,-92 21,-129 2,-37 -4,-62 -16,-75l-423 -445 229 -218zm3190 -164c123,-14 238,21 345,105 63,49 96,98 101,146 5,48 -12,96 -50,145 -43,54 -84,66 -122,36l-67 -52c-32,-26 -64,-18 -96,22 -15,18 -34,49 -58,92 -24,43 -46,88 -65,135 -19,48 -33,92 -41,133 -8,41 -3,69 15,83 25,20 55,21 90,5 36,-16 73,-40 110,-71 38,-31 73,-65 106,-103 33,-38 60,-70 81,-96 177,-224 294,-435 351,-632 58,-198 69,-382 35,-553 -34,-171 -107,-331 -220,-481 -113,-150 -251,-289 -415,-418 -147,-116 -298,-211 -451,-285 -154,-73 -307,-115 -459,-126 -152,-10 -300,16 -444,80 -144,64 -278,174 -402,332 -92,117 -155,236 -187,356 -33,120 -39,238 -19,354 20,116 65,228 136,336 70,108 162,206 275,296 107,84 222,144 346,179 123,35 281,50 475,45 78,-3 170,-10 275,-18 106,-9 224,-24 355,-45zm-1721 -1308c11,-18 19,-31 26,-39 8,-10 16,-20 24,-30 59,-75 133,-127 222,-155 89,-27 192,-31 308,-10 116,21 246,69 389,143 143,73 297,175 461,304 353,279 600,528 739,748 140,220 155,426 46,619 17,-177 -47,-323 -195,-439 -176,-139 -444,-223 -805,-251 -411,-36 -747,-158 -1010,-365 -228,-180 -297,-355 -205,-525zm1916 -1387c21,-14 42,-27 62,-40 21,-13 45,-41 73,-84 57,-89 96,-172 118,-249 23,-78 32,-156 28,-235 -3,-54 -15,-99 -37,-136 -22,-37 -52,-69 -91,-94 -80,-51 -164,-68 -252,-51 -87,17 -172,55 -253,112 -82,58 -158,128 -230,211 -71,82 -132,163 -182,241 -92,142 -143,269 -154,378 -10,109 42,201 156,275l2059 1323 -142 221 39 25 1048 -1630c-110,-144 -230,-258 -363,-343 -374,-241 -834,-263 -1380,-66 -198,71 -365,118 -499,142zm1606 1170l-1721 -1106c60,2 139,-3 236,-13 97,-11 218,-29 361,-52 252,-40 519,30 801,211 242,156 430,350 565,584l-242 376zm-2198 -1413c-26,-16 -42,-42 -48,-76 -5,-34 6,-73 34,-116 43,-67 95,-99 157,-94 61,4 135,34 222,90 97,62 167,121 208,175 42,54 42,114 0,179 -24,37 -53,63 -89,81 -46,19 -113,0 -202,-57l-282 -182zm3478 -1069l-13 28 42 20 342 -753 -42 -19 -96 211 -2489 -1129 96 -211 -42 -19 -605 1332c2,3 6,7 13,10 14,6 37,9 70,8 33,0 68,-7 106,-19 38,-12 75,-32 110,-59 34,-26 61,-61 80,-103 4,-7 4,-14 1,-21 -4,4 -11,4 -20,-1 -24,-10 -45,-49 -64,-115 -20,-67 -15,-151 13,-251l16 -35 239 109c242,109 416,389 523,839 131,562 400,936 805,1120 66,29 135,54 208,75 73,20 149,33 228,38l-89 197 42 19 380 -837 -42 -19 -13 28c-126,11 -260,1 -402,-30 -95,-77 -90,-303 16,-679l587 266zm-647 -293c-53,137 -98,258 -133,363 -35,106 -60,196 -74,272 -26,-6 -49,-14 -70,-24 -21,-9 -44,-19 -67,-30 -309,-140 -516,-327 -619,-560 -128,-304 -225,-501 -292,-591l1255 570zm864 -1589c-69,-20 -192,-193 -370,-521 -69,-127 -134,-248 -196,-365 -62,-116 -127,-222 -194,-317 -66,-95 -140,-177 -221,-246 -80,-70 -173,-119 -277,-149 -84,-23 -164,-25 -239,-3 -76,21 -147,58 -214,110 -67,52 -129,117 -187,194 -58,77 -110,160 -158,246 -47,87 -88,177 -123,268 -35,92 -64,178 -87,257 -25,91 -44,171 -57,238 -12,68 -12,126 1,175 13,49 40,90 80,123 40,32 101,60 183,83l2329 657 -62 223 44 12 398 -1412 -45 -12 -182 646 -360 -101c71,-74 124,-171 158,-292 21,-72 33,-132 38,-178 6,-47 6,-84 1,-110 -4,-27 -13,-46 -27,-58 -14,-12 -29,-20 -44,-24 -27,-8 -54,-2 -81,19 -27,20 -52,47 -75,79 -22,32 -42,66 -58,100 -16,34 -27,60 -32,77 -12,45 -5,71 22,79 5,1 15,1 28,-1 14,-1 29,-2 45,-3 17,-1 32,-2 45,-3 14,-2 25,-1 32,1 23,6 29,26 19,61 -3,13 -9,28 -17,46 -8,17 -17,35 -29,52 -11,16 -24,30 -37,41 -14,11 -28,14 -43,10l-8 -2zm-2046 -849c148,-183 380,-230 697,-141 359,101 653,294 880,577 116,148 213,264 289,348 77,85 135,135 176,152l-2088 -588c-62,-18 -80,-74 -53,-168 17,-62 50,-122 99,-180zm2421 -1250c98,-76 214,-105 350,-88 79,10 133,34 162,73 28,38 39,88 31,149 -8,69 -37,101 -86,95l-84 -11c-41,-5 -64,18 -71,69 -3,23 -3,59 -2,109 2,49 7,99 15,149 7,51 19,95 33,135 15,39 33,60 56,63 31,4 57,-10 80,-42 22,-32 41,-72 57,-117 16,-46 29,-94 38,-144 8,-49 15,-90 19,-124 36,-283 27,-524 -26,-723 -52,-198 -137,-362 -255,-491 -117,-129 -263,-228 -437,-298 -174,-70 -364,-118 -571,-144 -187,-23 -364,-27 -534,-10 -169,16 -322,59 -458,129 -135,69 -248,169 -339,297 -90,129 -147,293 -172,492 -19,148 -11,282 23,402 34,120 90,224 167,313 77,88 173,161 290,217 116,56 245,93 388,111 136,17 265,9 389,-25 123,-34 267,-102 430,-206 65,-44 141,-97 226,-159 86,-61 179,-135 281,-221zm-2150 -232c0,-20 1,-36 2,-46 2,-13 4,-26 5,-38 12,-95 49,-177 111,-247 62,-70 148,-126 258,-168 111,-42 246,-68 407,-79 161,-11 345,-3 552,23 447,56 787,142 1020,258 233,117 352,285 358,506 -76,-160 -207,-251 -393,-275 -222,-28 -495,39 -819,201 -371,181 -722,251 -1054,209 -288,-36 -437,-151 -447,-344z"/>
   <path class="fil0" d="M32390 17692c11,-22 21,-45 32,-66 11,-22 17,-59 18,-110 3,-105 -7,-197 -28,-275 -22,-77 -55,-149 -100,-214 -29,-45 -63,-77 -102,-97 -38,-21 -80,-31 -126,-32 -95,-2 -176,27 -242,87 -65,60 -118,136 -157,228 -40,92 -68,191 -86,299 -18,108 -28,208 -30,301 -4,169 18,304 66,403 47,99 140,150 276,153l2446 56 -6 262 47 1 44 -1937c-168,-65 -331,-100 -488,-104 -445,-10 -849,211 -1212,664 -132,164 -250,291 -352,381zm1981 162l-2046 -47c53,-30 117,-75 195,-135 77,-60 171,-137 281,-233 194,-165 459,-244 793,-236 288,6 550,74 787,203l-10 448zm-2613 -60c-31,-1 -57,-14 -80,-41 -23,-26 -33,-65 -32,-116 2,-80 30,-134 85,-162 54,-29 133,-42 236,-39 116,2 206,16 269,41 64,24 95,75 93,152 -1,44 -12,82 -33,115 -29,41 -97,60 -202,57l-336 -7z"/>
  </g>
  <g id="_750297328">
   <path class="fil1" d="M12972 21088c19,-133 56,-234 165,-321 12,17 91,80 24,216 -43,88 -90,87 -189,105zm2288 -1963c282,19 283,199 345,310 81,142 84,434 -33,526 -92,73 -166,252 -377,183 -179,-60 124,-134 167,-287 19,-68 60,-96 63,-197 7,-208 -22,-250 -135,-366 -113,-116 -57,-171 -30,-169zm-194 239c35,-37 160,-27 176,83 24,157 56,339 -138,388 -50,13 -133,-68 -28,-146 110,-81 -66,-265 -10,-325zm-796 -928c42,-81 25,-97 37,-122 48,-100 -26,-40 79,-79 90,117 62,78 41,249 -93,134 -9,109 -145,154 -38,-49 -32,-2 -32,-86 0,-3 18,-100 20,-116zm371 -46l-39 -89c-3,-80 28,-47 -75,-161 -4,-5 -13,-14 -17,-17l-34 -32c33,-166 -9,21 11,-117 226,81 365,227 335,561 -34,370 -582,563 -385,290 66,-91 237,-142 204,-435zm-7558 -1816l33 119c102,669 752,1741 1078,2138 577,707 658,952 1592,1664 2008,1531 4002,1341 5943,-117 1490,-1118 2651,-3390 771,-4631 -167,-110 -321,-235 -492,-342 -867,-543 -702,-357 -1360,-1060 -694,-742 -159,-372 -1365,178 -807,368 -1754,299 -2458,-255 -260,-204 -533,-607 -624,-961 -346,-1341 1008,-3232 2576,-2501 6,3 592,447 586,-19 -1,-73 -23,-125 -48,-176 -47,-93 -144,-234 -202,-295 -337,-359 -91,-343 -198,-776 -118,-477 -522,-871 -999,-980 -1279,-291 -2830,973 -3425,1517l-1406 1544c-439,500 -963,1300 -1552,1625 -219,121 -486,160 -642,262 -54,491 689,371 701,381 16,15 134,-13 -8,202 -415,631 -402,645 -679,1478 -274,827 -311,809 -644,1477 -129,259 10,359 182,301 218,-74 342,-350 554,-396 80,340 100,742 194,1098 217,825 705,2060 1572,2292 908,242 1459,-616 1189,-1193 -204,-438 -955,-539 -1221,-48 -104,191 -79,332 -186,484 -230,-3 -427,-335 -553,-557 -108,-193 -322,-547 -342,-795 330,-32 282,85 564,-106 -6,-284 -292,-610 -402,-922 -111,-318 -163,-870 -21,-1155 147,22 695,542 518,-331 -179,-882 16,-1757 333,-2573 66,-169 108,-268 180,-424 64,-140 116,-312 223,-376 28,94 -140,786 -169,961 -59,352 -89,765 -64,1149 43,662 104,1516 271,2119zm4681 4437l64 -399c106,8 143,61 134,196 -11,172 -74,186 -198,203zm928 -259c187,-19 65,2 111,26 5,60 -9,62 -72,90 -64,-78 -25,0 -39,-116zm607 -117c174,0 252,166 198,386 -16,66 -80,181 -113,228 -28,39 -33,61 -77,81 -190,85 -142,-18 -143,-18 -2,-155 81,-108 140,-255 89,-221 -63,-264 -5,-422zm1163 164c-51,-82 -46,-58 -34,-174 13,-140 62,-146 72,-156 66,65 89,46 76,190 -16,181 -61,115 -114,140zm-2393 -260c3,-1 10,-135 170,75 63,82 84,160 67,268 -25,171 -158,351 -301,389 -395,106 186,-223 123,-511l-59 -221zm2626 -205c308,34 254,569 -13,616 -56,-152 29,-112 55,-254 34,-189 -68,-149 -42,-362zm-3777 -73c373,-39 174,614 -114,506 47,-183 65,-28 122,-201 32,-98 -6,-191 -8,-305zm328 -206c169,-39 304,3 455,-109 147,-108 128,-250 297,-261 44,247 -104,364 -265,441 -172,82 -433,142 -487,-71zm2399 -166c102,-385 34,-140 58,-364 17,-155 -2,-58 45,-120 157,-13 212,541 -103,484zm-1178 8c14,-191 19,-66 70,-175 45,-96 32,-152 49,-248 281,114 86,430 -119,423zm-3061 105c-9,-208 171,-50 323,-214 14,-15 232,-472 271,-183 8,63 5,66 -19,127 -53,140 -286,370 -575,270zm1990 -131c48,-194 1,43 272,-334 197,100 -25,392 -272,334zm1912 -405c189,-33 208,86 56,178 -83,-56 -112,-13 -56,-178zm-1111 32c207,-6 127,124 28,109l-28 -47c-33,-237 4,112 0,-62zm-2799 221c41,-87 158,-206 260,-206 2,3 72,-46 22,112 -20,60 -33,55 -74,79 -72,41 -139,35 -208,15zm3391 -421c230,9 345,256 264,522 -71,228 -227,355 -468,375 54,-346 189,-121 263,-394 43,-159 -58,-328 -59,-503zm-2464 190c104,-128 346,159 640,-203 110,-136 15,-114 167,-192 0,1 157,44 -18,301 -178,262 -576,365 -789,94zm3636 -233c35,-15 3,-30 74,-14 59,13 -4,-23 67,33 49,39 86,111 110,160 217,441 -269,979 -508,849 61,-307 471,-48 257,-1028zm-3547 3c66,-134 46,-69 210,-126 119,-42 131,-81 259,-107 -17,291 -323,285 -469,233zm-1827 -340c108,-71 165,-13 446,-94 179,271 -462,283 -446,94zm2986 165c118,-102 413,121 651,-283 78,-134 28,-141 156,-182 226,436 -638,852 -807,465zm125 -267c28,-109 -30,-44 62,-105l354 -129c-9,216 -196,282 -416,234zm-2362 -168c186,12 302,139 535,72 89,-25 397,-253 323,-20 -73,229 -760,327 -858,-52zm242 -234c57,-10 85,-11 161,-4 7,1 102,13 103,13 68,19 50,17 91,43 -51,81 -47,107 -202,91 -184,-20 -132,-110 -153,-143zm6008 52c19,-108 39,-111 54,-193 26,-140 -12,-120 22,-240 249,-21 194,406 -76,433zm-2655 55c75,-221 17,2 117,-182 70,-128 -20,-70 89,-160 84,64 104,72 36,205 -53,103 -96,129 -242,137zm-2601 -295c331,43 541,252 804,53 38,-28 50,-52 90,-67 9,-3 20,-8 29,-10 145,-29 103,12 122,20 39,198 -266,343 -532,311 -333,-40 -328,-201 -414,-213 -74,-11 75,84 -45,5 -82,-54 -17,30 -54,-99zm2708 611c62,-219 272,-108 317,-376 25,-143 -161,-633 94,-388 121,115 130,387 43,560 -67,133 -271,271 -454,204zm-1917 -711c-84,133 -400,185 -463,-103 207,22 390,26 463,103zm4733 -312c613,102 315,928 -64,916 24,-219 162,-196 187,-419 29,-264 -104,-290 -123,-497zm-7985 85c48,-29 -2,-27 81,-32 57,-3 22,3 58,8 43,6 68,24 135,25 178,2 99,-72 254,1 -34,126 -81,181 -254,170 -285,-18 -274,-171 -274,-172zm3893 92c178,-25 338,5 473,-126 191,-185 22,-260 222,-327 130,160 33,537 -457,586 -235,24 -207,18 -238,-133zm-2674 -162c214,-6 175,-108 374,-115 -2,378 -746,347 -795,-7 212,21 211,128 421,122zm2758 -82c46,-95 -39,-52 125,-110 49,-17 122,-26 177,-32 -4,167 -144,243 -302,142zm-2013 -126c144,-36 153,52 351,19 82,-14 134,-59 176,-70 321,-77 88,250 -169,248 -184,-2 -389,-35 -358,-197zm-964 -101c7,-5 481,-160 436,27 -32,128 -310,177 -436,-27zm1440 -122c36,211 -282,215 -335,14l335 -14zm4142 -52c15,-59 28,-102 47,-164 64,-210 6,-116 115,-162 139,188 -25,446 -162,326zm-1217 110c8,-92 177,-169 261,-299 137,-212 37,-299 134,-430 165,103 203,333 73,527 -114,170 -321,268 -468,202zm-2355 -172c-18,-39 -17,-74 141,-49 638,-83 157,-172 490,-216 162,330 -524,499 -631,265zm5076 -295c18,115 -10,132 -43,194 -122,-45 -69,75 -118,-138 -58,-254 0,-141 30,-188 83,22 100,-56 131,132zm-1144 -4c1,-88 -1,-27 29,-77 306,-58 227,864 -270,775 34,-233 135,-96 240,-342 54,-127 45,-102 26,-232 -13,-80 -26,-53 -25,-124zm-3754 43c121,-230 353,-23 143,41 -113,34 -100,-11 -143,-41zm2176 153c20,-189 17,-99 91,-230 85,-151 -18,-86 116,-152 67,103 63,150 2,269 -52,102 -77,102 -209,113zm-5506 -121c-171,-6 -170,-29 -184,-145 82,-45 320,-29 400,-4 -14,130 -30,156 -216,149zm816 -290c291,94 586,-224 487,44 -62,166 -454,195 -598,73 -229,-242 41,-218 111,-117zm7523 -100c251,173 256,715 -85,722 -17,-219 127,-241 3,-526 -46,-104 -140,-350 82,-196zm-4062 169c39,-106 -80,-37 134,-97 415,-117 169,-227 359,-173 112,238 -293,400 -493,270zm-3461 -276l108 -12c606,35 -112,329 -108,12zm914 2c127,-35 181,24 328,-49 132,-67 42,-109 244,-87 -30,405 -614,336 -572,136zm1079 -142c137,-105 118,10 284,-86 76,-44 108,-125 198,-170 137,138 -44,400 -340,357 -117,-17 -114,-45 -142,-101zm-865 -257c-43,64 -39,18 -90,25 14,-118 -24,-77 75,-122 11,19 106,-36 15,97zm3206 143c23,-202 87,-67 224,-187 170,-148 -39,-184 234,-199 6,265 -227,468 -458,386zm1206 -121c-43,-67 -55,-88 -17,-190 56,-148 19,-87 148,-111 29,191 15,254 -131,301zm-3342 -115c-107,71 -86,-13 -87,-13 -12,-146 -3,-123 157,-115 -36,115 30,61 -70,128zm3147 -165c-33,121 -3,27 -57,114 -88,-52 -59,-17 -74,-130l131 16zm1047 -4c-40,139 -7,93 -125,77l26 -116c103,23 30,-22 99,39zm-587 -168c61,34 109,40 153,237 90,401 -218,629 -387,507 13,-190 151,-81 211,-303 62,-229 -90,-300 23,-441zm-2911 346c81,-162 66,-11 182,-154 147,-180 -58,-136 210,-169 46,276 -218,482 -392,323zm3782 109c-96,-95 -31,-32 -27,-201l27 -228c195,103 171,315 0,429zm-3822 -544c88,108 64,83 -38,116 -100,-119 -52,-79 38,-116zm3984 -50c611,-20 309,1064 -48,948 -4,-8 -45,-22 5,-112 16,-27 57,-61 74,-82 259,-316 -24,-561 -31,-754zm-3123 -545c298,58 111,384 -24,435 -153,56 -88,-68 -52,-129 64,-113 50,-174 76,-306zm1220 398c-70,-121 -13,-108 13,-259 31,-188 -45,-147 73,-263 125,45 151,151 118,298 -28,124 -119,222 -204,224zm999 -861c224,63 196,601 -60,559 -45,-156 109,-156 27,-377 -22,-60 -163,-237 33,-182zm-2340 -4728c-335,142 -330,-312 -2,-195 57,141 53,71 2,195zm-164 366c-212,-22 -401,-195 -442,-408 -30,-154 -9,-600 22,-735 337,31 1106,422 903,744 -123,-34 -60,-10 -132,-159 -128,-268 -428,-348 -563,-225 -309,283 148,561 212,783zm-1397 -1224c55,0 100,44 100,99 0,55 -45,99 -100,99 -54,0 -99,-44 -99,-99 0,-55 45,-99 99,-99zm196 391c55,0 100,45 100,100 0,55 -45,99 -100,99 -55,0 -99,-44 -99,-99 0,-55 44,-100 99,-100zm179 318c55,0 99,45 99,100 0,54 -44,99 -99,99 -55,0 -99,-45 -99,-99 0,-55 44,-100 99,-100zm223 298c54,0 99,45 99,100 0,54 -45,99 -99,99 -55,0 -100,-45 -100,-99 0,-55 45,-100 100,-100zm306 389c55,0 99,45 99,99 0,55 -44,100 -99,100 -55,0 -99,-45 -99,-100 0,-54 44,-99 99,-99zm-1520 -1146c62,0 112,50 112,112 0,62 -50,112 -112,112 -62,0 -112,-50 -112,-112 0,-62 50,-112 112,-112zm313 422c65,0 117,53 117,118 0,65 -52,118 -117,118 -65,0 -118,-53 -118,-118 0,-65 53,-118 118,-118zm256 433c65,0 118,53 118,118 0,65 -53,118 -118,118 -65,0 -117,-53 -117,-118 0,-65 52,-118 117,-118zm307 471c65,0 118,53 118,118 0,65 -53,118 -118,118 -65,0 -118,-53 -118,-118 0,-65 53,-118 118,-118zm-1390 -1016c101,0 183,81 183,182 0,101 -82,183 -183,183 -101,0 -182,-82 -182,-183 0,-101 81,-182 182,-182zm290 502c101,0 182,82 182,183 0,101 -81,182 -182,182 -101,0 -183,-81 -183,-182 0,-101 82,-183 183,-183zm431 423c101,0 183,82 183,182 0,101 -82,183 -183,183 -101,0 -183,-82 -183,-183 0,-100 82,-182 183,-182zm288 524c79,0 142,63 142,142 0,78 -63,142 -142,142 -78,0 -142,-64 -142,-142 0,-79 64,-142 142,-142zm-1294 -878c49,0 90,40 90,90 0,49 -41,90 -90,90 -50,0 -90,-41 -90,-90 0,-50 40,-90 90,-90zm442 494c50,0 90,40 90,90 0,49 -40,90 -90,90 -49,0 -90,-41 -90,-90 0,-50 41,-90 90,-90zm350 386c49,0 90,40 90,90 0,49 -41,90 -90,90 -50,0 -90,-41 -90,-90 0,-50 40,-90 90,-90zm-73 1772c84,0 153,68 153,152 0,85 -69,153 -153,153 -84,0 -152,-68 -152,-153 0,-84 68,-152 152,-152zm-495 -27c84,0 152,68 152,152 0,85 -68,153 -152,153 -84,0 -153,-68 -153,-153 0,-84 69,-152 153,-152zm-564 -135c85,0 153,68 153,153 0,84 -68,152 -153,152 -84,0 -152,-68 -152,-152 0,-85 68,-153 152,-153zm-474 -220c85,0 153,68 153,153 0,84 -68,152 -153,152 -84,0 -152,-68 -152,-152 0,-85 68,-153 152,-153zm-478 -251c84,0 153,68 153,152 0,85 -69,153 -153,153 -84,0 -152,-68 -152,-153 0,-84 68,-152 152,-152zm-347 -334c84,0 152,69 152,153 0,84 -68,153 -152,153 -85,0 -153,-69 -153,-153 0,-84 68,-153 153,-153zm2846 2412c65,0 117,53 117,117 0,65 -52,118 -117,118 -65,0 -118,-53 -118,-118 0,-64 53,-117 118,-117zm-569 140c65,0 117,53 117,118 0,65 -52,118 -117,118 -65,0 -118,-53 -118,-118 0,-65 53,-118 118,-118zm-592 44c65,0 117,53 117,118 0,65 -52,118 -117,118 -65,0 -118,-53 -118,-118 0,-65 53,-118 118,-118zm-644 -18c64,0 117,53 117,117 0,65 -53,118 -117,118 -65,0 -118,-53 -118,-118 0,-64 53,-117 118,-117zm-734 -60c65,0 117,53 117,118 0,65 -52,117 -117,117 -65,0 -118,-52 -118,-117 0,-65 53,-118 118,-118zm-664 -162c64,0 117,53 117,118 0,65 -53,117 -117,117 -65,0 -118,-52 -118,-117 0,-65 53,-118 118,-118z"/>
   <path class="fil1" d="M15027 25654c-78,106 -168,223 -243,326 -195,268 -214,476 -159,884 153,1159 226,979 1174,397 959,-589 540,-875 845,-2071 82,-326 239,-846 384,-1069 27,530 -767,1891 16,2925 683,903 844,429 1157,-340 163,-401 222,-598 200,-1089 -33,-738 -459,-1934 -459,-1935 -14,-159 -14,-73 39,-145 196,82 73,284 303,425 166,-98 41,-106 240,-132 -57,806 -299,1158 338,2193 147,239 424,458 774,549 385,101 904,81 1227,-74 281,-134 555,-347 629,-698 171,-815 -613,-1542 -1322,-1285 -173,63 -311,150 -401,282 -96,141 -85,344 -151,518 -443,-25 -261,-828 -105,-1037 210,7 257,93 473,20 173,-472 -266,-643 -313,-912 -18,-103 2,-137 2,-231 0,-208 17,-109 -53,-171 -32,-102 -44,61 -192,42 -68,-9 -130,-90 -250,-113 -262,-50 -488,65 -599,-163 -190,-390 213,-27 -341,-794 -80,-110 -75,-149 -221,-182l-112 140c-22,46 -45,108 -68,160 -53,123 -96,221 -161,328 -625,1024 -2516,1320 -3613,1076 -1050,-233 -2296,-1506 -3631,-1131 -728,205 -251,363 -157,567 -137,90 -2528,521 -2561,-1005 125,39 52,-37 224,241 499,805 1860,735 2047,-284 148,-804 -1178,-1896 -2308,-1255 -347,197 -690,650 -772,1159 -118,729 110,1061 404,1537 226,365 609,731 1009,962 1201,692 1590,80 1611,591 5,121 19,541 103,603 180,53 354,30 449,-79 96,-108 75,-276 90,-451 298,-3 386,303 843,437 326,95 806,36 992,-172 -73,-150 -139,-132 -308,-198 -133,-80 -124,-32 -184,-176 47,-130 65,-120 186,-174 157,-11 211,721 1388,36l297 -235c13,-8 31,-16 44,-19 77,-15 30,-6 72,12 15,117 -767,861 -881,982 -159,170 -301,282 -411,538 -84,195 -215,551 -169,769 290,59 1888,-307 2295,-915 296,-442 306,-334 683,-945 170,-275 413,-788 794,-783 147,320 -936,1226 -1187,1564z"/>
   <path class="fil1" d="M27449 15342c128,-208 288,58 225,142 -63,84 -353,65 -225,-142zm862 -3458c-235,-387 -1042,-1538 -1384,-1871 -475,-461 -791,-896 -1372,-1355 -75,-60 -79,-76 -156,-145 -966,-862 -2557,-1588 -3785,-1929 -682,-190 -3359,-765 -4073,-407l-73 52c-73,55 -44,180 -108,301 -65,124 -101,120 -147,275 292,-96 732,-353 989,-32 -7,189 -81,140 -163,337 445,-113 746,-642 1379,-123 -8,241 -145,279 -283,409 -142,134 -193,201 -309,345 239,-21 919,40 893,323 -9,100 -55,129 -146,303 -73,138 -178,252 -215,374 17,9 954,264 265,807 -48,37 -104,77 -153,111l-142 141c80,130 219,185 93,379 -83,129 -188,105 -255,261 197,91 1060,240 1375,324 433,114 875,259 1282,419 391,153 832,360 1155,547 1288,746 1839,1216 2904,2278 271,270 540,627 782,922 107,131 84,121 164,251 251,407 549,828 812,1240 83,211 357,557 665,517 171,-241 126,-574 225,-730 227,103 67,440 27,669 -46,337 63,728 354,218 368,-643 182,-334 318,-893 49,-205 204,-106 240,-353 171,-1182 -542,-2955 -1158,-3965zm219 3277c-181,38 -206,-5 -294,-85 20,-415 542,-230 294,85zm350 -674c-151,-95 -163,-174 0,-277 202,71 187,214 0,277zm-2144 -169c-154,67 -199,31 -221,-128 169,-218 260,5 263,14 19,78 -42,112 -42,114zm819 -779c210,74 265,186 108,342l-238 -10c-80,-167 -55,-250 130,-332zm-1732 -30c-2,-104 104,-205 211,-174 107,31 143,170 37,281 -107,111 -245,-3 -248,-107zm2309 10c229,-8 321,155 441,-91 72,-149 -43,-85 115,-132 98,143 -10,329 -138,378 -98,38 -419,98 -418,-155zm142 -481c149,40 86,-28 119,137 -124,38 -247,31 -119,-137zm-1431 11c-414,71 -498,-306 -242,-416 267,-114 463,159 242,416zm638 -580c112,-10 234,26 362,-4 168,-40 84,-111 280,-174 269,386 -523,591 -642,178zm351 -411l26 152c-1,0 -206,105 -216,-65 -7,-116 125,-101 190,-87zm-2931 -112c-349,51 -305,-240 -175,-321 156,-96 356,73 175,321zm1630 -333c252,11 526,203 765,-177 98,-156 11,-179 155,-181 13,20 149,-34 -40,331 -203,389 -805,307 -880,27zm202 -186c102,-75 65,-38 165,-68 197,-60 108,-100 269,-146 70,123 36,204 -94,262 -43,20 -134,46 -201,38 -178,-22 -99,-36 -139,-86zm191 -364c-92,96 -10,73 -147,43 -1,-7 -108,-21 52,-151 98,9 75,-27 95,108zm-3583 -8c-75,-204 -78,-187 52,-339 194,-19 198,11 294,100 20,271 -111,297 -346,239zm1320 -667c712,689 1006,1993 510,2138 -228,19 -459,-154 -525,-304 190,-54 602,275 578,-454 -15,-447 -274,-803 -534,-1189 -82,-123 -110,-118 -29,-191zm1209 358c44,-204 262,-68 420,-243 122,-135 90,-347 206,-469 285,309 -192,987 -626,712zm276 -714c65,23 116,8 116,143 1,159 -215,384 -420,231 37,-49 -19,-33 111,-91 48,-21 100,-28 148,-42l45 -241zm-3863 -23c162,-60 179,-61 324,0 57,241 -57,474 -349,242l25 -242zm3494 139c-93,-130 -52,-138 75,-159 62,138 30,128 -75,159zm-1957 1521c-209,103 -653,-221 -616,-307 55,-38 -18,-22 65,-24 68,-1 380,180 522,-42 308,-481 -451,-1572 -458,-1595 -90,-327 132,-17 192,82 54,86 93,141 145,231 276,486 566,1452 150,1655zm886 -1958c34,-166 -64,-68 91,-132 4,-1 119,-13 139,-17 409,-73 309,-388 367,-593 342,123 25,934 -597,742zm-6 -303c53,-275 57,-70 207,-213 130,-125 -32,-116 151,-195 133,223 -149,424 -358,408zm-21 -327c-99,-46 -38,26 -88,-75 35,-152 111,-55 146,-1l-58 76zm-1770 1753c-246,139 -669,-85 -720,-275 342,-44 611,126 678,-268 46,-270 -76,-540 -188,-722 -380,-617 -776,-832 -793,-1048 237,48 794,729 892,910 156,290 519,1162 131,1403zm-1818 -1836c-182,-165 -281,-221 -516,-317 -287,-116 -406,-160 -744,-141 -449,25 -99,-220 83,-286 1567,-565 2705,1706 1470,2338 -433,221 -995,48 -1270,-201 -312,-281 -365,-941 48,-1171 206,-115 457,-140 705,-36 87,37 207,113 252,164 113,125 46,170 192,239 20,-40 22,-21 29,-90 17,-170 -138,-399 -249,-499zm2268 -535c152,-119 128,-14 198,-252 99,-336 282,73 18,300 -127,109 -163,91 -216,-48zm-148 -258c-33,-160 30,-160 123,-96 -48,144 1,83 -123,96zm810 -21c105,611 -442,766 -620,643 73,-152 115,-57 267,-153 423,-266 70,-629 186,-787 104,45 140,139 167,297zm-2344 -491c-58,-136 -52,-109 51,-190 69,21 77,-9 101,78 24,85 -32,113 -40,133l-112 -21zm354 -349c281,-8 323,455 27,497 5,-117 44,-180 35,-268 -10,-108 -49,-92 -62,-229zm182 795c21,-257 267,-209 232,-529 -35,-314 -245,-209 -253,-451 471,-39 604,919 21,980zm-1923 -893c-171,-61 -120,-69 -38,-163 91,34 153,43 38,163zm277 -110c-39,-123 -115,-66 -101,-216 29,-11 -63,-69 102,-13 131,45 335,463 -67,559 18,-114 92,-248 66,-330zm131 -448c698,106 394,1186 -61,990 63,-195 252,-171 268,-451 18,-313 -162,-296 -207,-539z"/>
   <path class="fil1" d="M25832 15601c125,-127 91,-43 255,-121 111,-53 116,-112 219,-193 148,102 435,665 202,764 -289,123 -621,-379 -676,-450zm-12361 -3477c-1027,-110 -1239,1079 -771,1444 492,383 1398,40 1017,-790 -144,-315 -292,-172 -379,-391 178,-113 348,-17 453,123 180,243 412,469 528,762 205,517 96,600 655,1162 190,191 269,262 521,426 619,402 1425,837 1785,1431 74,122 126,207 248,238 109,-152 71,-338 183,-413 122,-82 319,-43 496,-154 -51,-222 -240,-336 -268,-568 777,-118 332,17 1254,-256 778,-231 209,-890 209,-890 264,-135 397,-71 550,-361 -7,-344 -216,-190 -297,-463 295,-321 560,-58 980,-68 69,-66 71,-89 146,-147 236,44 521,328 390,616 -291,50 -449,-281 -928,90 -527,408 -73,1492 824,1208 450,-143 308,-577 675,-627 147,202 161,326 418,550 58,51 522,441 643,222 64,-115 -45,-355 154,-304 110,29 459,628 889,579 89,-139 112,-286 190,-405 215,83 402,877 946,866 245,-5 179,-160 303,-306 169,9 138,36 238,147 70,78 126,140 205,210 374,335 1482,929 1661,670 106,-474 -676,-1566 -871,-1801 -645,-779 -1267,-1363 -2093,-1918 -1373,-924 -2881,-1809 -4507,-2231 -1417,-368 -3181,-404 -4456,406 -465,295 -818,522 -1006,1035 -207,568 -191,456 -489,198 -162,-139 -278,-266 -496,-290zm11030 3061c84,-6 433,-23 480,41 39,91 38,459 -196,374 -150,-54 -300,-221 -284,-415zm338 -233c-17,206 -289,122 -246,-54 34,-141 263,-136 246,54zm1008 -269c34,67 73,137 64,239l-193 29c-26,-155 -40,-268 129,-268zm-2738 -170c10,-3 25,-16 31,-6l504 -1c8,1 21,5 30,10 35,110 104,495 -76,551 -182,3 -561,-438 -489,-554zm-1085 -28l271 13c154,-5 143,-56 280,-61 74,172 31,394 -13,548 -237,17 -650,-311 -538,-500zm3296 -100c-203,4 -109,-209 -34,-218 109,-12 242,214 34,218zm-3270 -422c0,-237 430,-279 420,-3 -11,283 -421,245 -420,3zm2380 -128c-10,-204 24,-50 144,-203 107,-135 -30,-137 167,-209 101,369 -5,404 -311,412zm-841 -478c52,-120 15,-26 101,-118 124,-132 64,-165 105,-283 53,-159 -23,-40 101,-90 148,341 -128,610 -307,491zm-1318 -766c253,-419 -1,-211 176,-421 237,160 20,534 -176,421zm509 79c-63,173 -185,235 -421,246 48,-238 175,-144 268,-322 87,-166 -25,-235 54,-399 186,60 169,284 99,475zm-1792 -536c-283,19 -299,-253 -34,-232 39,69 45,132 34,232zm122 104c37,-92 93,-99 118,-217 35,-169 -39,-120 -61,-283 441,-45 167,696 -57,500zm319 -706c402,143 560,947 -142,1060 53,-239 77,-134 221,-288 70,-75 114,-203 92,-332 -43,-265 -501,-557 -171,-440zm-5273 47c30,-162 -47,-35 89,-147l271 -184c353,-257 974,-555 1457,-457 311,64 228,418 74,459 218,-31 498,-192 763,-249 389,-83 587,-77 877,76 9,745 -446,626 -429,815 129,43 878,-3 1005,243 226,438 -889,779 -1186,848 -283,66 -594,107 -892,167 -313,62 -709,207 -819,132 51,-96 -8,-97 344,-160 563,-101 2289,-308 2410,-900 -636,-567 -2454,379 -2717,265 129,-234 1693,-458 2024,-1016 451,-760 -1145,-246 -1917,280 -376,256 -414,241 -385,409 -285,-6 -234,112 -451,90 58,-200 167,-209 334,-319 140,-93 252,-173 384,-262 142,-96 231,-169 356,-286 58,-55 126,-107 161,-184 100,-222 -26,-211 -27,-211 -194,-198 -772,100 -942,194 -324,179 -650,447 -784,397zm7164 2295c107,-21 215,64 241,190 26,127 -40,247 -148,269 -107,21 -215,-64 -241,-190 -26,-127 40,-247 148,-269z"/>
   <path class="fil1" d="M14214 10407c17,69 -13,24 51,120 206,313 703,404 1063,368 446,-44 887,-253 1313,-352 1175,-272 1985,-102 2242,-143 124,-20 412,-196 425,-424 -585,-263 -2576,137 -2759,13 31,-85 -78,-47 124,-90l1598 -155c468,-65 1298,-194 1474,-511 -73,-659 -1176,-136 -1555,-16 -258,81 -1566,486 -1724,432 33,-131 -31,-76 370,-198l1336 -403c477,-149 1274,-248 1378,-988 -418,-468 -1226,-19 -1653,216 -245,134 -452,269 -706,392l-581 256c-121,39 -109,-8 -138,-73 227,-123 507,-220 769,-358 259,-136 490,-263 751,-421 245,-148 472,-262 707,-428 161,-115 506,-411 565,-606 -417,-491 -1526,412 -1821,709 -144,145 -817,722 -995,708 -6,-139 65,-147 167,-209 430,-262 982,-815 1305,-1193 100,-118 130,-101 126,-262l-67 -23c-47,-9 -58,-14 -110,-17 -472,-29 -1277,659 -1587,972 -136,136 -72,148 -243,198 76,-511 1340,-1076 1219,-1636 -351,-155 -1236,507 -1429,758 -237,309 -195,396 -345,452 -14,-23 -104,-28 51,-294 59,-103 108,-155 184,-228 243,-234 411,-250 439,-430 -238,-111 -901,269 -1049,385 -578,452 -1009,1140 -1185,1881 -87,370 -126,1026 96,1294 35,69 44,101 81,169 10,19 25,49 43,71 43,53 20,25 70,64z"/>
   <path class="fil1" d="M11138 8068c-211,38 -854,-489 -956,-609 -541,-637 -240,-935 -412,-1247 -315,-71 -509,293 -516,602 -9,418 282,476 368,769 -373,226 -1332,39 -1757,1144 -41,108 -65,196 -48,318 19,147 18,77 29,106 194,37 157,-21 279,-162 85,-97 140,-138 237,-219 207,-173 297,-309 653,-251l35 268c220,5 876,-187 1130,-243 356,-79 828,-167 1217,-166 449,2 794,62 1091,291 266,204 419,453 546,853 171,-44 101,3 337,-247 126,-134 182,-171 108,-385 -198,-55 -371,42 -351,-180 20,-210 631,-858 681,-1005 131,-383 -367,-851 -826,-707 -204,64 -192,115 -332,211 -120,-166 -6,-232 -233,-362 -311,4 -192,196 -378,305 -292,-75 -261,-509 -179,-784 85,-285 232,-555 551,-547 -5,239 -219,267 -76,543 80,155 302,187 526,135 375,-87 569,-525 356,-902 -134,-238 -457,-511 -756,-610 -825,-275 -1092,420 -1428,505 -201,52 -727,17 -950,424 -314,574 22,1112 359,1506 141,164 213,177 393,291l294 240c73,115 -19,-127 19,44 13,59 0,44 -11,71z"/>
   <path class="fil1" d="M18013 16341c-53,52 295,1302 335,1757 52,603 88,1477 -3,2060 -120,767 -633,1203 514,2199 218,190 377,328 717,13 117,-108 327,-443 392,-669 340,-1174 -259,-3497 -897,-4324 -339,-440 -428,-460 -759,-832 -76,-85 -197,-303 -299,-204z"/>
   <path class="fil1" d="M26969 26128c159,-204 42,-464 -26,-728 -330,-1266 -333,-1507 -1163,-2624 -156,-210 -680,-922 -883,-1010 -426,-184 -443,221 -599,263 -368,99 -453,-238 -271,459 283,1080 87,1682 529,2307 258,364 561,688 960,933 294,180 1025,491 1453,400z"/>
   <path class="fil1" d="M23074 19352l-556 -693c-174,-167 -308,-367 -605,-642 -1115,-1035 -1512,-1313 -2804,-2156 -229,-150 -511,-379 -877,-325 31,423 674,655 1168,1096 78,69 97,106 172,167 247,204 444,391 662,626 1461,1580 1532,3016 1855,3366 133,144 562,457 849,493 652,-338 419,-1480 136,-1932z"/>
   <path class="fil1" d="M18227 16224c253,599 1707,1040 1987,4057 76,814 -240,1384 650,1777 459,202 507,161 742,-194 659,-997 -466,-3084 -1156,-3900 -280,-330 -551,-648 -871,-944 -197,-183 -418,-372 -643,-569 -427,-374 -528,-456 -709,-227z"/>
   <path class="fil1" d="M25586 20650c16,456 389,399 881,763 948,704 2528,1546 3239,259 254,-459 111,-931 -166,-1217 -601,-620 -1783,-127 -2668,-68 -290,19 -482,-11 -756,-25 -334,-17 -289,161 -530,288z"/>
   <path class="fil1" d="M28257 18306c375,634 -538,1479 -1482,1655 -294,54 -758,-12 -998,85 23,102 -3,137 283,185 998,165 1822,47 2423,-763 691,-930 78,-2152 -874,-2298 -754,-116 -1573,307 -1586,1225 -1,94 1,-12 -9,83 -131,1175 1929,1526 2113,214 64,-461 -22,-306 130,-386z"/>
   <path class="fil1" d="M23014 22578c-496,170 -808,1058 -976,1575 -242,745 -393,1591 562,1640 383,20 718,-98 978,-254 768,-459 527,-2741 269,-3047 -134,112 -168,347 -346,372 -208,30 -349,-201 -487,-286z"/>
   <path class="fil1" d="M18820 15392c-169,164 481,399 882,672 65,44 124,98 195,146 1199,810 1001,779 1860,1470 247,199 466,415 677,647 116,127 172,208 300,342 157,164 712,1015 857,1150 99,92 692,543 918,330 192,-182 -16,-920 -118,-1094 -392,-669 -1409,-1534 -2017,-1955 -385,-266 -3225,-2026 -3554,-1708z"/>
   <path class="fil1" d="M28085 24219c273,4 532,40 713,-85 40,-248 -441,-900 -600,-1124 -695,-984 -911,-955 -1907,-1580 -76,-47 -485,-277 -591,-283 -77,-4 -645,167 -710,200 -64,232 63,324 152,440 505,659 796,754 1358,1783 316,578 999,641 1585,649z"/>
   <path class="fil1" d="M17775 16361c-187,362 -205,242 -162,705 67,738 -199,1601 -566,2170 -251,390 -488,334 -506,1311 -7,379 172,1331 469,1392 285,59 750,-497 916,-882 414,-959 359,-2191 223,-3210 -41,-311 -254,-1321 -374,-1486z"/>
   <path class="fil1" d="M23539 20078c-106,389 -28,596 -247,1015 -328,630 -364,234 -800,295 -67,187 -53,442 -104,653 -52,214 -149,402 -89,583 370,59 459,-151 715,-227 171,96 259,258 454,298 275,-135 243,-497 330,-832 168,-8 266,55 380,34 163,-29 134,-129 227,-224 136,-138 243,-21 366,-90 95,-53 73,-262 91,-366 195,-54 448,-85 619,-162 54,-287 -82,-253 -116,-470 110,-114 158,-68 254,-189 -72,-195 -286,-319 -239,-509 136,-79 284,-59 407,-161 170,-141 213,-559 -141,-488 -116,24 -145,61 -285,70 -219,13 -372,-82 -623,-90 -11,639 134,1391 -712,1074 -82,-31 -145,-61 -222,-117 -122,-89 -77,-102 -265,-97z"/>
   <path class="fil1" d="M19542 15331c82,212 151,185 374,259 1007,331 2471,1280 3237,1945 225,196 436,335 621,549 201,232 282,403 604,571 209,110 798,236 972,26 312,-374 -113,-1062 -757,-1378 -1200,-590 -1906,-958 -3216,-1405 -292,-100 -581,-182 -880,-291 -316,-116 -563,-262 -955,-276z"/>
   <path class="fil1" d="M17684 21907c-211,2 -480,311 -661,446 -199,149 -438,281 -719,374 -293,96 -634,145 -926,6 -218,-105 -481,-290 -469,-630 257,46 61,186 347,412 153,121 402,189 645,159 368,-46 942,-786 112,-1447 -546,-436 -1351,-90 -1571,440 -390,940 938,2294 2559,1157 219,-154 700,-661 683,-917z"/>
   <path class="fil1" d="M20516 15373c56,148 389,223 604,296 1191,403 2162,797 3284,1370 358,182 948,587 1390,235 441,-352 -293,-835 -593,-996 -411,-222 -881,-351 -1375,-484 -748,-202 -2498,-500 -3310,-421z"/>
   <path class="fil1" d="M14802 23416c197,0 242,5 329,-106 -235,-287 -370,-147 -752,-711 -186,-273 -507,-616 -858,-700 -105,-24 -817,-104 -888,-72 -363,162 363,1236 1153,1386 308,58 295,203 1016,203z"/>
   <path class="fil1" d="M20346 10389c698,558 1907,-248 1222,-1374 -284,-467 -831,-888 -1401,-668 99,80 -102,21 141,112 192,72 207,47 457,185 187,103 400,222 515,354 379,436 98,1187 -140,1167 -4,-10 -8,-23 -9,-32l-14 -104c-2,-107 44,-251 0,-411 -87,-315 -898,-536 -1070,-22 -123,368 139,665 299,793z"/>
   <path class="fil1" d="M22111 23725c-183,72 -276,204 -519,247 -275,49 -440,10 -564,-170 104,-60 129,-27 185,-23 43,2 42,10 96,6l423 -91c475,-255 298,-1055 -184,-1190 -714,-200 -1487,941 -716,1513 213,158 980,358 1136,62 49,-93 112,-238 143,-354z"/>
  </g>
 </g>
</svg>
