<svg height="512" viewBox="0 0 512 512" width="512" xmlns="http://www.w3.org/2000/svg"><g id="Flat"><path d="m208 200v96h-47.56a72.008 72.008 0 0 1 -71.56-64.05l-7.3-65.72a16.015 16.015 0 0 0 -15.9-14.23h-17.68v-32h36.29a47.993 47.993 0 0 1 45.97 34.21l1.74 5.79 5.16 17.2a32 32 0 0 0 30.65 22.8z" fill="#d0d24b"/><path d="m208 200v96h-47.56a72.008 72.008 0 0 1 -71.56-64.05l-7.3-65.72a15.866 15.866 0 0 0 -2.05-6.23h52.47l5.16 17.2a32 32 0 0 0 30.65 22.8z" fill="#79ad54"/><path d="m424 120a64 64 0 0 0 -64 64v48a64 64 0 0 0 64 64 64 64 0 0 0 64-64v-48a64 64 0 0 0 -64-64zm32 112a32 32 0 0 1 -64 0v-48a32 32 0 0 1 64 0z" fill="#c7c934"/><path d="m416 216c0 41.72-20.97 79.05-53.98 104h-164.46c-33.01-24.95-53.99-62.28-53.99-104a117.569 117.569 0 0 1 14.57-56c10.03-18.61 24.64-34.99 41.86-48h160c17.22 13.01 31.71 29.39 41.62 48a118.435 118.435 0 0 1 14.38 56z" fill="#d0d24b"/><path d="m296.722 65.208a24 24 0 1 0 -33.444 0 86.833 86.833 0 0 0 -63.278 46.792h160a86.833 86.833 0 0 0 -63.278-46.792z" fill="#d0d24b"/><path d="m416 216c0 41.72-20.97 79.05-53.98 104h-164.46c-33.01-24.95-53.99-62.28-53.99-104a117.569 117.569 0 0 1 14.57-56h243.48a118.435 118.435 0 0 1 14.38 56z" fill="#7eb457"/><path d="m185.023 201.588-15.682-3.176a94.775 94.775 0 0 1 5.375-17.479l14.777 6.134a78.738 78.738 0 0 0 -4.47 14.521z" fill="#88c25e"/><path d="m171.106 242.119a98.656 98.656 0 0 1 -3.536-26.119h16a82.645 82.645 0 0 0 2.965 21.881z" fill="#88c25e"/><path d="m352 120h-144a8 8 0 0 1 0-16h144a8 8 0 0 1 0 16z" fill="#c7c934"/><path d="m176 312v32h72a24 24 0 0 1 24 24 24 24 0 0 1 -24 24h-72v32h72a56 56 0 0 0 56-56 56 56 0 0 0 -56-56z" fill="#dbdbd9"/><path d="m232 304a308.553 308.553 0 0 1 -9.87 77.44 308.632 308.632 0 0 1 -28.98 72.49l-1.15 2.07h-112l-1.15-2.07q-5.115-9.195-9.56-18.7a308.514 308.514 0 0 1 -29.29-131.23z" fill="#e0e0de"/><path d="m232 304a308.553 308.553 0 0 1 -9.87 77.44 308.632 308.632 0 0 1 -28.98 72.49l-1.15 2.07h-112l-1.15-2.07q-5.115-9.195-9.56-18.7c53.94-24.98 103.7-66.61 141.79-131.23z" fill="#dbdbd9"/><path d="m232 304c0 7.28-4.68 14.12-12.85 20-16.6 11.96-47.62 20-83.15 20s-66.55-8.04-83.15-20c-8.17-5.88-12.85-12.72-12.85-20 0-22.09 42.98-40 96-40s96 17.91 96 40z" fill="#cfcfcd"/><ellipse cx="136" cy="324" fill="#7eb457" rx="83.15" ry="20"/><path d="m24 456h224a0 0 0 0 1 0 0 32 32 0 0 1 -32 32h-160a32 32 0 0 1 -32-32 0 0 0 0 1 0 0z" fill="#e0e0de"/><path d="m360.984 487.016.491.08c45.8 7.461 85.334-32.366 77.538-78.109-45.742-7.8-85.569 31.74-78.108 77.538z" fill="#5f9548"/><path d="m360.788 391.213.392.064a54.1 54.1 0 0 0 62.03-62.487 54.1 54.1 0 0 0 -62.486 62.03z" fill="#5f9548"/><g fill="#7eb457"><path d="m368 496h-16v-104a8 8 0 0 1 8-8 8 8 0 0 1 8 8z"/><path d="m359.016 487.016-.491.08c-45.8 7.461-85.334-32.366-77.537-78.108 45.742-7.8 85.569 31.74 78.108 77.538z"/><path d="m359.213 391.213-.393.064a54.1 54.1 0 0 1 -62.03-62.487 54.1 54.1 0 0 1 62.487 62.03z"/></g></g></svg>