<svg xmlns="http://www.w3.org/2000/svg" height="512" viewBox="0 0 64 64" width="512" xmlns:v="https://vecta.io/nano"><path d="M38 36v4H3c-.55 0-1-.45-1-1v-2c0-.55.45-1 1-1h25z" fill="#fc6e51"/><g fill="#ff826e"><path d="M38 40v12H24c0-3.3-2.7-6-6-6s-6 2.7-6 6H6c-1.1 0-2-.9-2-2v-2h5l1-4H4v-4z"/><path d="M62 47v3c0 1.1-.9 2-2 2h-4c0-1.77-.77-3.37-2-4.47V34l-.97-5.18c-.1-.48-.5-.82-.98-.82H43c-.55 0-1 .45-1 1v23h-4V28a3.99 3.99 0 0 1 .54-2A3.98 3.98 0 0 1 42 24h10.6c1.96 0 3.63 1.4 3.95 3.34L58 36l1.8.9A4.02 4.02 0 0 1 62 40.47V42h-4v3z"/></g><path d="M54 38v9.53A5.97 5.97 0 0 0 50 46c-3.3 0-6 2.7-6 6h-2V38h10z" fill="#fc6e51"/><path d="M62 42v5l-4-2v-3zm-52 2l-1 4H4v-4z" fill="#fcd770"/><path d="M54 47.53c1.23 1.1 2 2.7 2 4.47a6.02 6.02 0 0 1-6 6 6.02 6.02 0 0 1-6-6 6.02 6.02 0 0 1 6-6 5.97 5.97 0 0 1 4 1.53zM18 46a6.02 6.02 0 0 1 6 6 6.02 6.02 0 0 1-6 6 6.02 6.02 0 0 1-6-6 6.02 6.02 0 0 1 6-6z" fill="#969faa"/><g fill="#ccd1d9"><circle cx="50" cy="52" r="2"/><circle cx="18" cy="52" r="2"/></g><path d="M48 35c0 1.66 1.34 3 3 3h-9v-9c0-.55.45-1 1-1h9.05c.48 0 .9.34.98.82L54 34h-5c-.55 0-1 .45-1 1z" fill="#69d6f4"/><path d="M54 34v4h-3c-1.66 0-3-1.34-3-3 0-.55.45-1 1-1z" fill="#aab2bd"/><g fill="#d3a06c"><path d="M4 26h12v10H4z"/><path d="M16 26h12v10H16z"/><path d="M28 26h12v10H28zM10 16h12v10H10z"/><path d="M22 16h12v10H22z"/><path d="M16 6h12v10H16z"/></g><path d="M20 6h4v4h-4zm-2 10v4h-4v-4h2zm12 0v4h-4v-4h2zm4 10h4.54a3.99 3.99 0 0 0-.54 2v2h-6v-4zm-10 0v4h-4v-4h2zm-12 0v4H8v-4h2z" fill="#b27946"/><path d="M50 49c-1.654 0-3 1.346-3 3s1.346 3 3 3 3-1.346 3-3-1.346-3-3-3zm0 4a1 1 0 1 1 0-2 1 1 0 1 1 0 2zm-32-4c-1.654 0-3 1.346-3 3s1.346 3 3 3 3-1.346 3-3-1.346-3-3-3zm0 4a1 1 0 1 1 0-2 1 1 0 1 1 0 2zm42.236-17l-1.334-.667-1.36-8.154A4.98 4.98 0 0 0 52.61 23H42c-1.627 0-3.06.793-3.974 2H35V15h-6V5H15v10H9v10H3v10c-1.103 0-2 .897-2 2v2c0 1.103.897 2 2 2v9c0 1.654 1.346 3 3 3h5.08c.488 3.386 3.4 6 6.92 6s6.432-2.614 6.92-6h18.16c.488 3.386 3.4 6 6.92 6s6.432-2.614 6.92-6H60c1.654 0 3-1.346 3-3v-9.528c0-1.906-1.06-3.618-2.764-4.472zM61 45.382l-2-1V43h2zM21 27h2v2h-2zm4 4v-4h2v8H17v-8h2v4zm12 4h-8v-8h2v4h6zm0-7v1h-4v-2h4.1c-.066.323-.1.658-.1 1zm-4-3H23v-8h2v4h6v-4h2zm-6-8h2v2h-2zM21 7h2v2h-2zm-4 0h2v4h6V7h2v8H17zm-2 10h2v2h-2zm-4 0h2v4h6v-4h2v8H11zM9 27h2v2H9zm-4 0h2v4h6v-4h2v8H5zM3 37h34v2H3zm2 8h3.72l-.5 2H5zm0 5v-1h4.78l1.5-6H5v-2h32v10H24.92c-.488-3.386-3.4-6-6.92-6s-6.432 2.614-6.92 6H6a1 1 0 0 1-1-1zm13 7c-2.757 0-5-2.243-5-5s2.243-5 5-5 5 2.243 5 5-2.243 5-5 5zm31-22h4v2h-2c-1.103 0-2-.897-2-2zm0-2c-1.103 0-2 .897-2 2 0 .732.212 1.4.556 2H43v-8h9.046l.75 4zm-6 6h10v6.685c-.9-.434-1.926-.685-3-.685-3.52 0-6.432 2.614-6.92 6H43zm7 18c-2.757 0-5-2.243-5-5s2.243-5 5-5 5 2.243 5 5-2.243 5-5 5zm10-6h-3.08c-.216-1.502-.906-2.852-1.92-3.9V34l-.987-5.366A2 2 0 0 0 52.047 27H43c-1.103 0-2 .897-2 2v22h-2V28c0-1.654 1.346-3 3-3h10.6a2.99 2.99 0 0 1 2.959 2.507l1.527 9.16 2.244 1.122c1.023.512 1.66 1.54 1.66 2.683V41h-4v4.618l4 2V50a1 1 0 0 1-1 1z"/></svg>