<svg id="Capa_1" enable-background="new 0 0 512 512" height="512" viewBox="0 0 512 512" width="512" xmlns="http://www.w3.org/2000/svg"><path d="m379.271 78.014c9.735-14.07 22.588-39.964 23.457-52.562.869-12.597-14.268-25.452-31.295-13.603-6.922-13.484-31.691-17.673-42.551-.732-21.285-14.335-35.186-9.122-39.53 6.082s3.91 35.186 26.064 46.046z" fill="#efd176"/><path d="m393.736 143.205s24.858-7.849 44.572-21.866c6.199-4.408 6.199-13.641 0-18.048-19.714-14.017-44.572-21.866-44.572-21.866z" fill="#efd176"/><path d="m421.145 191.277c-.676-51.727-16.981-44.141-18.394-85.039-1.175-34.016-28.408-61.662-62.44-62.205-46.647-.744-76.261 42.528-92.006 84.549-4.515 12.051-21.142 13.302-27.401 2.057-4.55-8.176-8.433-18.007-11.354-29.805-13.375-54.024-110.266-58.448-139.938 32.976-2.559 7.883 3.866 15.733 12.113 14.901 13.908-1.403 30.401-.692 40.961 2.497-18.833 10.292-28.136 34.107-30.144 55.582-.559 5.981 4.944 10.746 10.775 9.299 15.246-3.782 38.547-4.888 44.666-4.221-8.421 7.47-13.506 23.945-14.33 42.331-.283 6.315 4.314 11.773 10.579 12.611 16.258 2.175 40.559 2.296 59.332 1.245 4.821-.27 9.078-3.19 11.094-7.578 2.469-5.373 5.708-9.45 9.516-12.411 9.327-7.253 22.882-5.587 30.213 3.678 9.193 11.619 21.09 20.998 34.739 27.194 5.695 2.585 9.3 8.321 9.3 14.575v6.399c0 7.314-2.497 14.41-7.077 20.113-8.163 10.163-.928 25.254 12.108 25.254h46.305c13.035 0 20.27-15.091 12.108-25.254-4.58-5.703-7.077-12.798-7.077-20.113v-5.549c0-6.329 3.679-12.149 9.487-14.665 33.876-14.673 57.379-49.058 56.865-88.421z" fill="#f7ef87"/><path d="m291.347 320.026c-8.163 10.163-.928 25.254 12.108 25.254h46.305c8.226 0 14.136-6.01 15.331-12.998-76.164-53.065-125.432-137.63-114.248-210.159-.88 2.153-1.732 4.308-2.538 6.46-4.515 12.051-21.142 13.301-27.401 2.056-4.55-8.175-8.433-18.007-11.354-29.804-13.375-54.025-110.266-58.449-139.938 32.975-2.559 7.883 3.866 15.733 12.112 14.901 13.908-1.403 30.401-.692 40.961 2.497-18.833 10.292-28.136 34.107-30.144 55.582-.559 5.981 4.944 10.746 10.775 9.299 15.246-3.782 38.547-4.888 44.666-4.221-8.421 7.471-13.506 23.945-14.33 42.331-.283 6.315 4.314 11.773 10.579 12.611 16.258 2.175 40.559 2.296 59.332 1.245 4.821-.27 9.078-3.19 11.094-7.578 2.469-5.373 5.708-9.45 9.516-12.411 9.327-7.252 22.882-5.587 30.213 3.679 9.193 11.619 21.09 20.998 34.74 27.194 5.695 2.585 9.3 8.321 9.3 14.575v6.399c-.002 7.315-2.499 14.41-7.079 20.113z" fill="#efd176"/><g fill="#f7ef87"><path d="m140.897 183.047c-2.536 0-5.011-1.286-6.421-3.613-2.147-3.543-1.016-8.154 2.527-10.302 10.956-6.642 24.202-8.188 37.298-4.354 3.975 1.164 6.254 5.33 5.09 9.306-1.163 3.975-5.33 6.255-9.305 5.091-9.137-2.678-17.89-1.711-25.309 2.785-1.215.736-2.557 1.087-3.88 1.087z"/><path d="m177.491 245.967c-.395 0-.793-.031-1.194-.096-4.09-.654-6.876-4.501-6.221-8.591 1.498-9.36 11.554-23.843 22.272-28.487 3.799-1.648 8.217.099 9.864 3.9s-.099 8.217-3.9 9.863c-5.81 2.518-12.712 12.644-13.425 17.095-.59 3.689-3.777 6.316-7.396 6.316z"/><path d="m118.389 118.13c-1.956 0-3.91-.761-5.38-2.274-2.886-2.972-2.817-7.72.154-10.605 6.412-6.229 23.417-14.44 41.753-9.964 4.024.982 6.49 5.041 5.507 9.064-.982 4.024-5.04 6.487-9.065 5.508-13.055-3.187-24.905 3.394-27.745 6.151-1.456 1.415-3.341 2.12-5.224 2.12z"/></g><path d="m290.907 235.094-18.934-7.652c-8.45-3.415-11.921-13.519-7.353-21.405l16.044-27.7c8.398-14.498 23.884-23.425 40.638-23.425 11.645 0 22.331 6.454 27.75 16.761 9.144 17.39 6.064 38.688-7.632 52.774-13.109 13.485-33.076 17.693-50.513 10.647z" fill="#efd176"/><path d="m337.262 512h-16.815c-6.382 0-11.556-5.174-11.556-11.556v-155.164h39.927v155.164c-.001 6.382-5.174 11.556-11.556 11.556z" fill="#c6c6c6"/><path d="m308.89 345.28h39.927v31.77h-39.927z" fill="#9aa3b1"/><ellipse cx="345.822" cy="120.593" fill="#eda1ab" rx="25.045" ry="19.945"/><path d="m360.419 108.196c-4.142 0-7.5-3.357-7.5-7.5v-8.844c0-4.142 3.358-7.5 7.5-7.5s7.5 3.358 7.5 7.5v8.844c0 4.143-3.358 7.5-7.5 7.5z" fill="#4e5660"/></svg>