<svg xmlns="http://www.w3.org/2000/svg" height="512" viewBox="0 0 64 64" width="512" xmlns:v="https://vecta.io/nano"><g fill="#fcd770"><path d="M62 35.95v2.1c0 3.54-1.48 6.9-4.05 9.32l-3.9-.6A13.39 13.39 0 0 0 56 39.84v-3.68c0-2.07-.48-4.08-1.36-5.88a12.73 12.73 0 0 0-2.63-3.61l.01-.01c.56-1.02 1.63-1.66 2.82-1.66.7 0 1.36.22 1.92.63C60.06 28.07 62 31.9 62 35.95z"/><path d="M50.84 25.64c.42.32.82.66 1.17 1.03a12.73 12.73 0 0 1 2.63 3.61A13.36 13.36 0 0 1 56 36.16v3.68a13.39 13.39 0 0 1-1.94 6.94l-9.38-1.44v-.01a20.99 20.99 0 0 1-.68-5.3v-4.06a21.29 21.29 0 0 1 .41-4.14 8.01 8.01 0 0 0 1.6.17c2.2 0 4-.9 4-2 0-.7-.74-1.33-1.85-1.68l.3-3.28c.16-.03.33-.04.5-.04.68 0 1.35.23 1.9.64zm-12.07-.2a3.17 3.17 0 0 1 1.25 1.29v.01C37.47 29.18 36 32.58 36 36.16v3.68a13.11 13.11 0 0 0 .72 4.27l-5.6-.86c-.72-1.62-1.1-3.38-1.1-5.2v-2.1c0-.75.07-1.5.2-2.23.04-.2.08-.42.13-.63.68-2.95 2.4-5.6 4.9-7.46.56-.4 1.23-.63 1.92-.63a3.18 3.18 0 0 1 1.61.43z"/><path d="M43.55 25.02l.3 3.3c-1.1.35-1.85.97-1.85 1.68 0 .82 1 1.52 2.4 1.83a21.29 21.29 0 0 0-.41 4.14v4.06a20.99 20.99 0 0 0 .68 5.3l-7.96-1.22c-.47-1.36-.72-2.8-.72-4.27v-3.68c0-3.58 1.47-6.98 4.02-9.43v-.01c.4-.4.82-.75 1.27-1.08.56-.4 1.24-.64 1.94-.64.1 0 .2.01.3.02z"/></g><path d="M50 30c0 1.1-1.8 2-4 2-.57 0-1.1-.06-1.6-.17-1.42-.3-2.4-1-2.4-1.83 0-.7.74-1.33 1.85-1.68l-.3-3.3-.54-5.9c-.01-.1-.01-.17-.01-.26 0-1.6 1.28-2.87 2.87-2.87h.26c.8 0 1.5.32 2.03.84s.84 1.24.84 2.03v.26l-.84 9.2c1.1.35 1.85.97 1.85 1.68z" fill="#cf9e76"/><path d="M23.9 6.13c.35-.08.72-.13 1.1-.13a4.98 4.98 0 0 1 4 2l-.02.1c-.32-.07-.64-.1-.98-.1a4.99 4.99 0 0 0-4.6 3.04c-.13-.01-.26-.04-.4-.04-2.5 0-4.57 1.86-4.93 4.27C15.15 16.1 13 18.8 13 22c0 2.73 1.56 5.08 3.84 6.24A4.94 4.94 0 0 0 16 31c0 1.78.94 3.33 2.34 4.22-.2.55-.34 1.15-.34 1.78 0 2.76 2.24 5.03 5 5.03l-.76-.03H22a9.93 9.93 0 0 0-5.31 1.53L14 36c-2.76 0-5-2.24-5-5 0-.63.13-1.23.34-1.78C7.94 28.33 7 26.78 7 25a4.94 4.94 0 0 1 .84-2.76C5.56 21.08 4 18.73 4 16c0-3.2 2.15-5.9 5.07-6.73C9.43 6.86 11.5 5 14 5c.14 0 .27.03.4.04A4.99 4.99 0 0 1 19 2c2.46 0 4.5 1.78 4.9 4.13z" fill="#8cc152"/><g fill="#b4dd7f"><path d="M37.56 20.5A4.97 4.97 0 0 1 39 24a4.71 4.71 0 0 1-.2 1.36l-.04.07a3.18 3.18 0 0 0-1.61-.43c-.7 0-1.36.22-1.92.63-2.5 1.86-4.23 4.5-4.9 7.46l-.13.63c-.13.73-.2 1.48-.2 2.23v2.1c0 1.82.4 3.58 1.1 5.2l-7.35-1.13-.76-.1c-2.76 0-5-2.27-5-5.03 0-.63.13-1.23.34-1.78C16.93 34.3 16 32.77 16 31a4.94 4.94 0 0 1 .84-2.76C14.56 27.08 13 24.73 13 22a7 7 0 0 1 5.07-6.73C18.43 12.86 20.5 11 23 11c.14 0 .27.03.4.04A4.99 4.99 0 0 1 28 8c.34 0 .66.03.98.1a4.99 4.99 0 0 1 3.93 4.03c.35-.08.72-.13 1.1-.13 2.76 0 5 2.24 5 5a4.97 4.97 0 0 1-1.44 3.5zM6.8 50h5.4a10.05 10.05 0 0 0 0 4H4c-.55 0-1.05-.22-1.4-.6A1.96 1.96 0 0 1 2 52c0-1.1.9-2 2-2z"/><path d="M7.2 46.04l5.95 1.33c-.43.82-.75 1.7-.94 2.63H6.8A1.79 1.79 0 0 1 5 48.2v-.4A1.79 1.79 0 0 1 6.8 46a1.87 1.87 0 0 1 .4.04zm5.94 10.6L7.2 57.96a1.75 1.75 0 0 1-.4.04A1.79 1.79 0 0 1 5 56.2v-.4A1.79 1.79 0 0 1 6.8 54h5.4c.2.93.5 1.8.94 2.63z"/></g><path d="M60.88 48.96c-.7-.82-1.7-1.4-2.83-1.57l-.1-.02-3.9-.6-9.38-1.44v-.01l-7.96-1.22-12.96-2-.76-.1-.76-.03H22a9.93 9.93 0 0 0-5.31 1.53 10.01 10.01 0 0 0-3.55 3.84c-.43.82-.75 1.7-.94 2.63a10.05 10.05 0 0 0 0 4c.2.93.5 1.8.94 2.63.47.9 1.08 1.73 1.8 2.44A9.97 9.97 0 0 0 22 62h.24a9.83 9.83 0 0 0 1.52-.12l34.3-5.27C60.32 56.26 62 54.3 62 52a4.68 4.68 0 0 0-1.12-3.04z" fill="#ff826e"/><path d="M63 35.95c0-4.354-2.1-8.512-5.647-11.122-.72-.534-1.615-.827-2.516-.827a4.21 4.21 0 0 0-2.961 1.218c-.145-.12-.277-.254-.427-.37-.555-.424-1.22-.676-1.905-.78l.44-4.85a4.08 4.08 0 0 0 .015-.35c0-2.134-1.736-3.87-3.87-3.87h-.26C43.736 15 42 16.736 42 18.87a3.71 3.71 0 0 0 .016.35l.443 4.87c-.634.12-1.247.365-1.765.75-.18.134-.338.288-.5.43a4.06 4.06 0 0 0-.28-.261 5.97 5.97 0 0 0 .096-1 5.95 5.95 0 0 0-1.13-3.5A6.06 6.06 0 0 0 40 17a6.01 6.01 0 0 0-6.35-5.99c-.642-1.84-2.14-3.227-3.98-3.762-1.218-1.52-3.054-2.362-5.02-2.238A5.98 5.98 0 0 0 19 1a5.99 5.99 0 0 0-5.198 3.003 6.03 6.03 0 0 0-5.593 4.504C5.113 9.662 3 12.66 3 16a7.95 7.95 0 0 0 3.5 6.608 5.95 5.95 0 0 0 1.674 6.998A5.79 5.79 0 0 0 8 31a6.01 6.01 0 0 0 5.28 5.957l2.212 6.195a11.04 11.04 0 0 0-2.84 3.08l-5.24-1.164a2.71 2.71 0 0 0-.61-.068C5.257 45 4 46.257 4 47.802v.396a2.77 2.77 0 0 0 .131.802H4c-1.654 0-3 1.346-3 3s1.346 3 3 3h.13a2.77 2.77 0 0 0-.131.802v.396A2.81 2.81 0 0 0 6.802 59c.206 0 .4-.022.608-.067l5.24-1.165C14.592 60.902 18.05 63 22 63h.235c.556 0 1.12-.043 1.672-.128l34.3-5.275C60.98 57.168 63 54.815 63 52a5.61 5.61 0 0 0-3.243-5.1C61.83 44.424 63 41.284 63 38.05zm-12.767-9.5C53.218 28.72 55 32.355 55 36.164v3.673c0 2.05-.5 4.057-1.474 5.848l-8.02-1.234A19.94 19.94 0 0 1 45 40.03v-4.06c0-1.008.1-2.015.254-3.013.245.02.5.043.746.043 2.85 0 5-1.3 5-3 0-.944-.653-1.782-1.784-2.332l.147-1.618a2.11 2.11 0 0 1 .87.388zM45.87 17h.26c1.03 0 1.87.84 1.87 1.87a1.6 1.6 0 0 1-.008.17l-.908 9.987.763.245c.876.28 1.152.65 1.152.728 0 .25-1.064 1-3 1s-3-.75-3-1c0-.08.276-.448 1.152-.73l.763-.245-.908-9.986a1.95 1.95 0 0 1-.007-.17c0-1.03.84-1.87 1.87-1.87zm-3.23 9.083l.144 1.585C41.653 28.218 41 29.056 41 30c0 1.102.9 2.023 2.296 2.543-.18 1.135-.296 2.28-.296 3.427v4.06c0 1.374.132 2.746.388 4.095l-5.895-.907A12.04 12.04 0 0 1 37 39.836v-3.673c0-3.803 1.828-7.437 4.9-9.72.223-.166.48-.288.75-.36zM31.833 42.347A11.63 11.63 0 0 1 31 38.051v-2.103c0-3.722 1.808-7.278 4.835-9.514.38-.28.852-.434 1.328-.434a2.21 2.21 0 0 1 1.567.65C36.372 29.234 35 32.628 35 36.164v3.673c0 1.03.123 2.05.346 3.05zm.094-30.046l.182 1.03 1.02-.227A3.98 3.98 0 0 1 34 13c2.206 0 4 1.794 4 4a3.98 3.98 0 0 1-1.148 2.8l-.688.7.688.7A3.98 3.98 0 0 1 38 24c0 .03-.006.06-.006.1-.27-.054-.547-.1-.83-.1a4.26 4.26 0 0 0-2.516.826 13.94 13.94 0 0 0-4.225 5.079 70.9 70.9 0 0 0-1.187-3.383c.925-4.886 4.356-7.714 4.4-7.743L33 18l-.625-.78c-.14.1-2.844 2.32-4.363 6.305-2.08-4.778-4.045-7.87-4.17-8.065l-1.683 1.082c.027.04 1.552 2.44 3.327 6.26-3-1.126-6.4-.815-6.585-.795l.2 2c1.504-.15 5.764-.078 7.754 1.953a64.23 64.23 0 0 1 2.002 5.636C25.815 30.025 22.188 30 22 30v2c.047 0 4.5.03 7.134 2.125-.082.602-.134 1.2-.134 1.824v2.103a13.65 13.65 0 0 0 .594 3.952l-5.687-.875c-.3-.046-.603-.077-.907-.1-2.206 0-4-1.808-4-4.03 0-.466.093-.944.275-1.423l.292-.765-.693-.438a3.98 3.98 0 0 1-1.206-5.583l.623-.936-1.002-.5C15.26 26.315 14 24.267 14 22c0-2.66 1.788-5.03 4.35-5.764l.62-.178.093-.64A4.01 4.01 0 0 1 23 12c.037 0 .073.008.1.013.07.01.14.02.212.024l.717.058.282-.662C24.95 9.955 26.395 9 28 9c1.938 0 3.6 1.388 3.927 3.3zM14.705 35H14c-2.206 0-4-1.794-4-4 0-.467.093-.945.275-1.422l.293-.765-.693-.438a3.98 3.98 0 0 1-1.207-5.583l.623-.936-1.002-.5C6.26 20.315 5 18.267 5 16c0-2.66 1.788-5.03 4.348-5.764l.62-.178.093-.64C10.348 7.47 12.04 6 14 6c.038 0 .075.008.112.013a3.41 3.41 0 0 0 .206.024l.72.06.283-.665C15.95 3.955 17.395 3 19 3c1.938 0 3.6 1.388 3.927 3.3l.182 1.03 1.02-.227A3.98 3.98 0 0 1 25 7c.46 0 .897.1 1.315.247-1.47.43-2.736 1.406-3.513 2.756a6.03 6.03 0 0 0-5.593 4.504C14.113 15.662 12 18.66 12 22a7.95 7.95 0 0 0 3.5 6.608A5.95 5.95 0 0 0 15 31c0 1.8.8 3.473 2.173 4.607-.115.464-.173.93-.173 1.393 0 1.757.756 3.336 1.953 4.438a10.89 10.89 0 0 0-1.713.66zM6 48.198v-.396c0-.502.486-.9.977-.783l4.76 1.058a11.23 11.23 0 0 0-.31.923H6.802C6.36 49 6 48.64 6 48.198zM3 52a1 1 0 0 1 1-1h7.05a11.01 11.01 0 0 0-.05 1 11.01 11.01 0 0 0 .051 1H4a1 1 0 0 1-1-1zm3.975 4.98C6.5 57.083 6 56.7 6 56.198v-.396c0-.442.36-.802.802-.802h4.624a11.1 11.1 0 0 0 .309.923zM61 52a3.64 3.64 0 0 1-3.105 3.62l-34.3 5.275a9.02 9.02 0 0 1-1.37.105H22c-4.962 0-9-4.038-9-9s4.038-9 9-9h.235a9.15 9.15 0 0 1 1.37.104l34.3 5.275c1.8.278 3.106 1.8 3.106 3.62zm0-13.95c0 3.076-1.245 6.052-3.4 8.258l-1.987-.306a14.34 14.34 0 0 0 1.398-6.167v-3.673c0-3.554-1.354-6.965-3.68-9.553a2.21 2.21 0 0 1 1.517-.61 2.24 2.24 0 0 1 1.328.436C59.192 28.67 61 32.227 61 35.95zM21 47h2v10h-2zm8 0h2v10h-2zm8 0h2v10h-2zm8 2h2v6h-2zm8 1h2v4h-2z"/></svg>